<?xml version="1.0" encoding="utf-8"?>
<!-- Generator: Adobe Illustrator 21.0.2, SVG Export Plug-In . SVG Version: 6.00 Build 0)  -->
<svg version="1.1" id="Layer_1" xmlns="http://www.w3.org/2000/svg" xmlns:xlink="http://www.w3.org/1999/xlink" x="0px" y="0px"
	 viewBox="0 0 27 27.3" style="enable-background:new 0 0 27 27.3;" xml:space="preserve">
<style type="text/css">
	.st0{fill:#8FC542;}
</style>
<path class="st0" d="M26.7,13.6c0-7.3-5.9-13.1-13.2-13.1S0.3,6.4,0.3,13.6c0,7.3,5.9,13.1,13.1,13.1C20.8,26.7,26.7,20.8,26.7,13.6
	z M12.8,21L12.8,21l-6-6c-0.5-0.5-0.5-1.2,0-1.7c0.2-0.2,0.5-0.3,0.8-0.3s0.6,0.1,0.8,0.3l4,4V7c0-0.7,0.5-1.2,1.2-1.2
	s1.2,0.5,1.2,1.2v10.2l4-4c0.2-0.2,0.5-0.3,0.8-0.3c0.3,0,0.6,0.1,0.8,0.3c0.5,0.5,0.5,1.2,0,1.7l-6,6C13.9,21.3,13.2,21.3,12.8,21z
	"/>
</svg>
