<?xml version="1.0" encoding="utf-8"?>
<!-- Generator: Adobe Illustrator 21.0.2, SVG Export Plug-In . SVG Version: 6.00 Build 0)  -->
<svg version="1.1" id="Layer_1" xmlns="http://www.w3.org/2000/svg" xmlns:xlink="http://www.w3.org/1999/xlink" x="0px" y="0px"
	 viewBox="0 0 300 300" style="enable-background:new 0 0 300 300;" xml:space="preserve">
<style type="text/css">
	.st0{fill:#D25C56;}
</style>
<path class="st0" d="M150.3,1C68.5,1,2.3,67.2,2.3,148.9s66.2,147.9,147.9,147.9s148-66.2,148-147.9S232,1,150.3,1 M226.2,217.1
	c-2.8,3.1-6.6,4.6-10.5,4.6c-3.4,0-6.9-1.2-9.6-3.7c-16.8-15.4-36.1-23.6-55.9-23.6c-19.7,0-39,8.1-55.9,23.6
	c-5.8,5.3-14.8,4.9-20-0.9c-5.3-5.8-4.9-14.8,0.9-20.1c22.1-20.3,48.1-31,75-31s52.9,10.7,75,31
	C231.1,202.3,231.5,211.3,226.2,217.1 M200.9,78.2c15.6,0,28.3,12.7,28.3,28.3s-12.7,28.3-28.3,28.3s-28.3-12.7-28.3-28.3
	S185.3,78.2,200.9,78.2 M100.4,78.2c15.6,0,28.3,12.7,28.3,28.3s-12.7,28.2-28.3,28.2S72.1,122,72.1,106.4S84.8,78.2,100.4,78.2"/>
</svg>
