<?xml version="1.0" encoding="utf-8"?>
<!-- Generator: Adobe Illustrator 21.0.2, SVG Export Plug-In . SVG Version: 6.00 Build 0)  -->
<svg version="1.1" id="Layer_1" xmlns="http://www.w3.org/2000/svg" xmlns:xlink="http://www.w3.org/1999/xlink" x="0px" y="0px"
	 viewBox="0 0 300 300" style="enable-background:new 0 0 300 300;" xml:space="preserve">
<style type="text/css">
	.st0{fill:#7DB96E;}
</style>
<path class="st0" d="M150.2,2C69.4,2,3.8,67.5,3.8,148.4s65.5,146.4,146.4,146.4s146.4-65.5,146.4-146.4C296.6,67.5,231.1,2,150.2,2
	 M150.2,244.3c-38.3,0-72.3-24.7-94.1-65h188.1C222.5,219.6,188.5,244.3,150.2,244.3 M199.5,81c15.4,0,28,12.5,28,28s-12.5,28-28,28
	c-15.4,0-28-12.5-28-28S184,81,199.5,81 M100,81c15.5,0,28,12.5,28,28s-12.5,28-28,28c-15.4,0-28-12.5-28-28S84.5,81,100,81"/>
</svg>
