<?xml version="1.0" encoding="utf-8"?>
<!-- Generator: Adobe Illustrator 21.0.2, SVG Export Plug-In . SVG Version: 6.00 Build 0)  -->
<svg version="1.1" id="Layer_1" xmlns="http://www.w3.org/2000/svg" xmlns:xlink="http://www.w3.org/1999/xlink" x="0px" y="0px"
	 viewBox="0 0 300 300" style="enable-background:new 0 0 300 300;" xml:space="preserve">
<style type="text/css">
	.st0{fill:#ECBA48;}
</style>
<path class="st0" d="M149.4,3.6C68.6,3.6,3,69.1,3,150s65.5,146.4,146.4,146.4c80.8,0,146.4-65.5,146.4-146.4S230.2,3.6,149.4,3.6
	 M197.7,82.5c15.4,0,28,12.5,28,28c0,15.4-12.5,28-28,28c-15.4,0-28-12.5-28-28C169.8,95.1,182.3,82.5,197.7,82.5 M98.3,82.5
	c15.4,0,28,12.5,28,28c0,15.4-12.5,28-28,28c-15.4,0-28-12.5-28-28C70.3,95.1,82.8,82.5,98.3,82.5 M224.6,215.7H74.1
	c-7.8,0-14-7-14-14.8s6.3-14.8,14-14.8h150.6c7.8,0,14,7,14,14.8S232.4,215.7,224.6,215.7"/>
</svg>
