<?xml version="1.0" encoding="utf-8"?>
<!-- Generator: Adobe Illustrator 21.0.2, SVG Export Plug-In . SVG Version: 6.00 Build 0)  -->
<svg version="1.1" id="Layer_1" xmlns="http://www.w3.org/2000/svg" xmlns:xlink="http://www.w3.org/1999/xlink" x="0px" y="0px"
	 viewBox="0 0 300 207" style="enable-background:new 0 0 300 207;" xml:space="preserve">
<style type="text/css">
	.st0{display:none;}
	.st1{fill:#4AAEE7;}
</style>
<path class="st0" d="M229.8,192.3c0-23.8-12.1-45.5-31.9-61.8h0.1c0,0,4.8-11.5,3.9-29.8c-0.3-2.4-22.7,17.3-22.7,17.3l0.1,0.1
	c-20.1-10.9-44.8-17.4-71.5-17.4C48.4,100.6-1.1,132.6-11.9,175v-0.3C-18.4,177-48.5,160.8-49,136c0,51.4,35,52.3,35,52.3
	s-0.1,2.6-0.1,4c0,27,15.6,51.3,40.3,68.1l0,0l-12.8,48.8h51l7.3-29.3l0,0c11.4,2.7,23.6,4.1,36.1,4.1c11.2,0,22.1-1.2,32.4-3.3
	h-0.1v28.5h51l-11.8-42.7c16.1-8.8,29.2-20.4,38-34l16.5,8.9l16.5-49L229.8,192.3L229.8,192.3z M136.6,228.3
	c-1.4,3.1-3.5,5.9-6.4,8.1c-2.8,2.3-6.3,4.1-10.4,5.3c-2.3,0.7-4.8,1.2-7.5,1.5v10.6H97.5v-10.9c-1.7-0.3-3.4-0.6-5.1-1
	c-4.2-1.1-7.8-2.8-11-5.1s-5.7-5.3-7.6-8.9c-1.9-3.6-2.8-7.9-2.7-12.8h17.1c0,2.7,0.5,5,1.4,6.9c1,1.9,2.3,3.4,3.9,4.5
	c1.6,1.2,3.5,2,5.7,2.6c2.2,0.5,4.4,0.8,6.7,0.8c1.6,0,3.3-0.1,5-0.4c1.8-0.3,3.5-0.8,5.1-1.5s2.9-1.8,3.9-3.1s1.6-3,1.6-5
	c0-2.2-0.7-3.9-2.1-5.3s-3.2-2.5-5.4-3.4s-4.8-1.7-7.6-2.4c-2.9-0.7-5.7-1.4-8.7-2.2c-3-0.7-5.9-1.7-8.7-2.8
	c-2.9-1.1-5.4-2.5-7.7-4.2c-2.2-1.7-4.1-3.9-5.4-6.5c-1.4-2.6-2.1-5.7-2.1-9.4c0-4.1,0.9-7.7,2.7-10.7c1.8-3,4.1-5.6,6.9-7.6
	c2.9-2,6.1-3.5,9.7-4.5c2.1-0.5,4.1-0.9,6.2-1.1v-9.9H114v10.9c0.6,0.1,1.3,0.2,1.9,0.3c3.8,0.9,7.3,2.5,10.3,4.5
	c3,2.1,5.4,4.8,7.1,8.1c1.8,3.3,2.6,7.2,2.6,11.9H119c-0.1-2.4-0.7-4.4-1.5-6c-0.9-1.6-2-2.8-3.4-3.7c-1.4-0.9-3-1.5-4.9-1.9
	s-3.8-0.6-6-0.6c-1.4,0-2.8,0.2-4.3,0.5c-1.4,0.3-2.7,0.8-3.9,1.6c-1.1,0.7-2.1,1.7-2.9,2.8s-1.1,2.5-1.1,4.3c0,1.6,0.3,2.8,0.9,3.8
	c0.6,1,1.8,1.9,3.5,2.7c1.8,0.8,4.2,1.6,7.3,2.5c3.1,0.8,7.2,1.9,12.2,3.1c1.5,0.3,3.6,0.9,6.2,1.6c2.7,0.8,5.3,2.1,7.9,3.8
	c2.6,1.7,4.9,4.1,6.8,6.9c1.9,2.9,2.9,6.6,2.9,11.1C138.8,221.8,138,225.2,136.6,228.3 M142.3,135.1c-64.9-13.8-68.4,4-79.8,5.6
	c0,0-11.1-2.8,0.6-11.9c22.7-17.1,76.9-10,84.9-0.8C150.4,134.9,142.3,135.1,142.3,135.1 M195.1,190.4c-5.3,0-9.6-7-9.6-15.6
	s4.3-15.6,9.6-15.6s9.7,7,9.7,15.6S200.4,190.4,195.1,190.4"/>
<path class="st0" d="M33.7,170.6c0-15.2,5.2-29.2,13.7-40.4c-4.1-1.2-8.4-2.1-12.9-2.1c-25.2,0-45.5,20.4-45.5,45.6
	c0,17.9,10.5,33.3,25.5,40.7h-0.3c-22.5,0-61.2,18.3-61.2,40.8v20.4h42.3v-13.8c0-25.7,24.6-44.7,49.7-54.3
	C37.8,196.9,33.7,184.2,33.7,170.6 M187.9,214.4h-0.3c15-7.5,25.5-22.8,25.5-40.7c0-25.2-20.4-45.5-45.6-45.5c-4.9,0-9.5,1-13.9,2.4
	c8.4,11.2,13.5,25,13.5,40c0,13.5-4.1,26-11,36.5c25.4,9.5,50.7,28.7,50.7,54.7v13.8h42.3v-20.4
	C249.1,232.7,210.4,214.4,187.9,214.4 M123.2,217.3h-6c19.2-6.9,32.9-25.2,32.9-46.7c0-27.5-22.3-49.7-49.7-49.7
	c-27.5,0-49.8,22.2-49.8,49.7c0,21.5,13.7,39.8,32.9,46.7h-4.8c-24.5,0-66.6,19.9-66.6,44.5v22.3h177.7v-22.3
	C189.9,237.2,147.7,217.3,123.2,217.3"/>
<g>
	<path class="st1" d="M197.8,143.5c0.6-22.1,22.5-47.6,38.2-58.1c-17.7-21.3-48.8-36.2-84.8-38.4c-17.5-19.2-38.8-44-39.7-45.8
		c7.4,16.4,4.6,34.9,0.4,48.5c-30.2,6.2-55,21.4-68.6,41.4L13,54.2c0,0,15.2,83.4-7.6,121.3C-8,198,15.6,174,37.2,150.7
		c14.2,31.9,55.7,55.2,104.6,55.2c32.5,0,61.6-10.3,81.7-26.5C210.3,169.4,197.5,154.9,197.8,143.5z M179.9,189.1
		c-8.4,4.9-17.9,8-39.3,8c-20.1,0-26.5-3.1-32.8-6.1l-2.2-1.1c-1.9-0.9-2.7-3.1-1.9-5c0.9-1.9,3.2-2.7,5-1.9l2.3,1.1
		c5.7,2.8,11.1,5.4,29.5,5.4c21.8,0,29.5-3.4,35.5-6.9c1.8-1.1,4.1-0.4,5.2,1.4C182.3,185.6,181.7,188,179.9,189.1z M179.6,108.6
		c-6,0-10.9-8.2-10.9-18.3s4.9-18.2,10.9-18.2s10.9,8.2,10.9,18.2S185.6,108.6,179.6,108.6z"/>
	<path class="st1" d="M268.6,117c-5.2-5.7-11.7-13.2-11.9-13.8c2.2,5,1.3,10.5,0.1,14.6c-9,1.9-16.3,6.4-20.4,12.3l-9.1-11.1
		c0,0,4.5,24.9-2.3,36.2c-4,6.7,3.1-0.5,9.6-7.5c4.2,9.6,16.5,16.6,31.1,16.6c18.1,0,32.8-10.6,32.8-23.7
		C298.5,128.1,285.3,118.1,268.6,117z M284.9,139.8c-1.8,0-3.2-2.4-3.2-5.4s1.4-5.4,3.2-5.4s3.3,2.4,3.3,5.4
		S286.7,139.8,284.9,139.8z"/>
</g>
</svg>
