<?xml version="1.0" encoding="utf-8"?>
<!-- Generator: Adobe Illustrator 21.0.2, SVG Export Plug-In . SVG Version: 6.00 Build 0)  -->
<svg version="1.1" id="Layer_1" xmlns="http://www.w3.org/2000/svg" xmlns:xlink="http://www.w3.org/1999/xlink" x="0px" y="0px"
	 viewBox="0 0 281 282.2" style="enable-background:new 0 0 281 282.2;" xml:space="preserve">
<style type="text/css">
	.st0{display:none;}
	.st1{display:inline;fill:#1E6988;}
	.st2{display:none;fill:#1E6988;}
	.st3{display:inline;}
	.st4{fill:#00ACEC;}
</style>
<path class="st0" d="M266.2,92.5c0-23.8-12.1-45.5-31.9-61.8h0.1c0,0,4.8-11.5,3.9-29.8c-0.1-2.3-22.5,17.3-22.5,17.3l0.1,0.1
	C195.7,7.4,171,0.9,144.3,0.9c-59.4,0-108.9,32-119.7,74.3v-0.3C18,77.3-12.1,61-12.5,36.2c0,51.4,35,52.3,35,52.3s-0.1,2.6-0.1,4
	c0,27,15.6,51.3,40.3,68.1l0,0l-12.8,48.8h51l7.3-29.3l0,0c11.4,2.7,23.6,4.1,36.1,4.1c11.2,0,22.1-1.2,32.4-3.3h-0.1v28.5h51
	l-11.8-42.7c16.1-8.8,29.2-20.4,38-34l16.5,8.9l16.5-49L266.2,92.5L266.2,92.5z M173.1,128.6c-1.4,3.1-3.5,5.9-6.4,8.1
	c-2.8,2.3-6.3,4.1-10.4,5.3c-2.3,0.7-4.8,1.2-7.5,1.5v10.6H134v-10.9c-1.7-0.3-3.4-0.6-5.1-1c-4.2-1.1-7.8-2.8-11-5.1
	s-5.7-5.3-7.6-8.9s-2.8-7.9-2.7-12.8h17.1c0,2.7,0.5,5,1.4,6.9c1,1.9,2.3,3.4,3.9,4.5c1.6,1.2,3.5,2,5.7,2.6
	c2.2,0.5,4.4,0.8,6.7,0.8c1.6,0,3.3-0.1,5-0.4c1.8-0.3,3.5-0.8,5.1-1.5s2.9-1.8,3.9-3.1s1.6-3,1.6-5c0-2.2-0.7-3.9-2.1-5.3
	c-1.4-1.4-3.2-2.5-5.4-3.4s-4.8-1.7-7.6-2.4c-2.9-0.7-5.7-1.4-8.7-2.2c-3-0.7-5.9-1.7-8.7-2.8c-2.9-1.1-5.4-2.5-7.7-4.2
	c-2.2-1.7-4.1-3.9-5.4-6.5c-1.4-2.6-2.1-5.7-2.1-9.4c0-4.1,0.9-7.7,2.7-10.7s4.1-5.6,6.9-7.6c2.9-2,6.1-3.5,9.7-4.5
	c2.1-0.5,4.1-0.9,6.2-1.1v-9.9h14.7V61c0.6,0.1,1.3,0.2,1.9,0.3c3.8,0.9,7.3,2.5,10.3,4.5c3,2.1,5.4,4.8,7.1,8.1
	c1.8,3.3,2.6,7.2,2.6,11.9h-17.1c-0.1-2.4-0.7-4.4-1.5-6c-0.9-1.6-2-2.8-3.4-3.7c-1.4-0.9-3-1.5-4.9-1.9s-3.8-0.6-6-0.6
	c-1.4,0-2.8,0.2-4.3,0.5c-1.4,0.3-2.7,0.8-3.9,1.6c-1.1,0.7-2.1,1.7-2.9,2.8s-1.1,2.5-1.1,4.3c0,1.6,0.3,2.8,0.9,3.8
	c0.6,1,1.8,1.9,3.5,2.7c1.8,0.8,4.2,1.6,7.3,2.5c3.1,0.8,7.2,1.9,12.2,3.1c1.5,0.3,3.6,0.9,6.2,1.6c2.7,0.8,5.3,2.1,7.9,3.8
	c2.6,1.7,4.9,4.1,6.8,6.9c1.9,2.9,2.9,6.6,2.9,11.1C175.2,122,174.5,125.4,173.1,128.6 M178.8,35.3c-64.9-13.8-68.4,4-79.8,5.6
	c0,0-11.1-2.8,0.6-11.9c22.7-17.1,76.9-10,84.9-0.8C186.9,35.1,178.8,35.3,178.8,35.3 M231.6,90.6c-5.3,0-9.6-7-9.6-15.6
	s4.3-15.6,9.6-15.6s9.7,7,9.7,15.6C241.2,83.6,236.9,90.6,231.6,90.6"/>
<path class="st0" d="M70.2,70.8c0-15.2,5.2-29.2,13.7-40.4c-4.1-1.2-8.4-2.1-12.9-2.1c-25.2,0-45.6,20.4-45.6,45.5
	c0,17.9,10.5,33.3,25.5,40.7h-0.3c-22.5,0-61.2,18.3-61.2,40.8v20.4h42.3v-13.8c0-25.7,24.6-44.7,49.7-54.3
	C74.3,97.2,70.2,84.5,70.2,70.8 M224.3,114.6H224c15-7.5,25.5-22.8,25.5-40.7c0-25.2-20.4-45.5-45.6-45.5c-4.9,0-9.5,1-13.9,2.4
	c8.4,11.2,13.5,25,13.5,40c0,13.5-4.1,26-11,36.5c25.4,9.5,50.7,28.7,50.7,54.7v13.8h42.3v-20.4
	C285.6,132.9,246.9,114.6,224.3,114.6 M159.7,117.5h-6c19.2-6.9,32.9-25.2,32.9-46.7c0-27.5-22.3-49.7-49.7-49.7
	c-27.5,0-49.8,22.2-49.8,49.7c0,21.5,13.7,39.8,32.9,46.7h-4.8c-24.5,0-66.6,19.9-66.6,44.5v22.3h177.7V162
	C226.3,137.5,184.2,117.5,159.7,117.5"/>
<g class="st0">
	<path class="st1" d="M184.9,139.8c0.6-22.1,22.5-47.6,38.2-58.1c-17.7-21.3-48.8-36.2-84.8-38.4C120.8,24.2,99.4-0.6,98.6-2.5
		C106,13.9,103.2,32.4,99,46c-30.2,6.2-55,21.4-68.6,41.4L0.1,50.6c0,0,15.2,83.4-7.6,121.3c-13.4,22.4,10.2-1.6,31.8-24.9
		c14.2,32,55.7,55.2,104.6,55.2c32.5,0,61.6-10.3,81.7-26.5C197.4,165.7,184.6,151.2,184.9,139.8z M166.9,185.4
		c-8.4,4.9-17.9,8-39.3,8c-20.1,0-26.5-3.1-32.8-6.1l-2.2-1.1c-1.9-0.9-2.7-3.1-1.9-5c0.9-1.9,3.2-2.7,5-1.9l2.3,1.1
		c5.7,2.8,11.1,5.4,29.5,5.4c21.8,0,29.5-3.4,35.5-6.9c1.8-1.1,4.1-0.4,5.2,1.4C169.4,182,168.8,184.3,166.9,185.4z M166.6,105.1
		c-6,0-10.9-8.2-10.9-18.3s4.9-18.2,10.9-18.2s10.9,8.2,10.9,18.2S172.7,105.1,166.6,105.1z"/>
	<path class="st1" d="M255.7,113.4c-5.2-5.7-11.7-13.2-11.9-13.8c2.2,5,1.3,10.5,0.1,14.6c-9,1.9-16.3,6.4-20.4,12.3l-9.1-11.1
		c0,0,4.5,24.9-2.3,36.2c-4,6.7,3.1-0.5,9.6-7.5c4.2,9.6,16.5,16.6,31.1,16.6c18.1,0,32.8-10.6,32.8-23.7
		C285.6,124.6,272.4,114.5,255.7,113.4z M272,136.1c-1.8,0-3.2-2.4-3.2-5.4s1.4-5.4,3.2-5.4s3.3,2.4,3.3,5.4
		C275.2,133.7,273.8,136.1,272,136.1z"/>
</g>
<g class="st0">
	<path class="st1" d="M251.6,39.5c-0.7-10.4-3-16.6-7.2-26.1c-14.6-33.2-64.9-55.1-92.9-28C129.1,7.1,133.3,35.7,124,62.6
		c-23,67-75.9,68.6-136.6,47.7c32.9,41.9,82.8,88,136.6,88.1v29.2h2.5l-2.4,0.4l3.7,22.7l4.8-0.9l-3-18.5l22.1,6.9l1.3-5.1l-18-5.6
		l15.6-5.3l-1.6-5.1l-20.2,6.9v-25.5c1.5-0.1,3-0.2,4.5-0.3c8-0.8,15.9-2.9,23.8-6.2v21h2.5l-2.4,0.4L161,236l4.9-0.9l-3-18.5
		l22.1,6.8l1.4-5.2l-18-5.5l15.6-5.3l-1.5-5.1l-20.1,6.9v-19.5c42.1-19.9,80.4-67.3,88.2-117.4l37.1-14.1L251.6,39.5z M189.9,45.4
		c-9.4,0-17.1-8.3-17.1-18.5s7.7-18.5,17.1-18.5S207,16.7,207,26.9C207.1,37.1,199.4,45.4,189.9,45.4z"/>
</g>
<path class="st2" d="M261.8,256c0,16.3-13.2,29.5-29.5,29.5H39.7c-16.3,0-29.5-13.2-29.5-29.5V15c0-16.3,13.2-29.5,29.5-29.5h192.5
	c16.3,0,29.5,13.2,29.5,29.5L261.8,256L261.8,256z M78.3,77.8l-0.6-63l-11.1,0.1L67,53.5L44.2,15.1l-9.9,0.1l0.6,63L46,78.1
	l-0.4-38.7l22.8,38.4H78.3z M128.2,77.3l-0.1-11l-26.3,0.2l-0.1-15.3l22.4-0.2L124,40l-22.4,0.2l-0.1-14.8l26.3-0.2l-0.1-11
	l-37.4,0.3l0.6,63L128.2,77.3z M201.3,13.7l-11.6,0.1l-8.5,39.8L170.5,14l-8.3,0.1l-10,39.8l-9.1-39.6l-11.6,0.1l15.7,62.9l9.2-0.1
	l10.1-38.3L177.3,77l9.2-0.1L201.3,13.7z M244.6,57.7c-0.1-5.6-1.4-10.2-4.5-13.3c-2.4-2.4-5.7-4-10.9-4.8l-6.7-1
	c-2.3-0.3-4.2-1.3-5.3-2.4c-1.2-1.2-1.7-2.9-1.7-4.5c0-4.3,2.8-8,8.7-8c3.7,0,8.1,0.5,11.7,4.2l6.9-7.8c-4.9-5.2-10.6-7.2-18.4-7.2
	c-12.3,0.1-19.7,8.1-19.6,19.3c0.1,5.3,1.4,9.4,4.2,12.3c2.6,2.7,6.2,4.4,11,5.1l6.9,1c2.6,0.4,3.9,1,5,2.2c1.2,1.2,1.8,3.1,1.8,5.3
	c0.1,5-3.4,7.8-10,7.9c-5.3,0.1-10.1-1.2-13.8-5.2l-7.1,8c5.6,6.2,12.2,8.2,20.8,8.1C235.7,76.9,244.8,69.9,244.6,57.7z
	 M148.5,170.3H242v-68.1h-93.5V170.3z M124.1,107.4H31.9v7.4h92.2V107.4z M124.1,135.6H31.9v7.4h92.2V135.6z M124.1,163.7H31.9v7.4
	h92.2V163.7z M242.1,191.9H31.9v7.4h210.2L242.1,191.9L242.1,191.9z M242.1,220.1H31.9v7.4h210.2L242.1,220.1L242.1,220.1z
	 M242.1,248.2H31.9v7.4h210.2L242.1,248.2L242.1,248.2z"/>
<path class="st2" d="M121.4,283.4c-6.8,0-13.2-2.7-18.1-7.5L-5.5,167c-10-10-10-26.2,0-36.1L125,0.3c7.8-7.8,22.1-13.7,33.1-13.7
	h100.1c14.1,0,25.6,11.5,25.6,25.6v100c0,11.1-5.9,25.4-13.7,33.2L139.5,275.9C134.6,280.7,128.2,283.4,121.4,283.4z M246.1,52.5
	c0-13.7-11.1-24.8-24.8-24.8s-24.8,11.1-24.8,24.8s11.1,24.8,24.8,24.8S246.1,66.2,246.1,52.5"/>
<path class="st0" d="M264.7,273.6V75.4H135.9V25.8H7.1v247.7h-19.8v9.9h297.3v-9.9h-19.9V273.6z M205.3,95.2h39.6v39.6h-39.6
	L205.3,95.2L205.3,95.2z M205.3,144.7h39.6v39.6h-39.6L205.3,144.7L205.3,144.7z M205.3,194.3h39.6v39.6h-39.6L205.3,194.3
	L205.3,194.3z M155.7,95.2h39.6v39.6h-39.6V95.2L155.7,95.2z M155.7,144.7h39.6v39.6h-39.6V144.7L155.7,144.7z M155.7,194.3h39.6
	v39.6h-39.6V194.3L155.7,194.3z M76.4,45.6H116v39.6H76.4V45.6z M76.4,95.2H116v39.6H76.4V95.2z M76.4,144.7H116v39.6H76.4V144.7z
	 M76.4,194.3H116v39.6H76.4V194.3z M26.9,45.6h39.6v39.6H26.9V45.6z M26.9,95.2h39.6v39.6H26.9V95.2z M26.9,144.7h39.6v39.6H26.9
	V144.7z M26.9,194.3h39.6v39.6H26.9V194.3z M56.6,243.8h29.7v29.7H56.6V243.8z M185.4,243.8h29.7v29.7h-29.7
	C185.4,273.5,185.4,243.8,185.4,243.8z"/>
<path class="st0" d="M274.4,120.9C258.6,63.6,225.6,19.2,203,28.8c-1,0.4-3.3,1.7-6.5,3.7l-0.4,0.2c-15.6,14.8-17.9,59.9-4.3,109.5
	c0.9,3.4-1.1,7-4.5,7.9s-7-1.1-7.9-4.5l0,0c-10.9-39.4-13.9-74.1-7.4-97.9c-49.8,31.9-143.8,94-168.6,110.4c-2-0.8-3.9-1-5.7-0.5
	c-9,2.5-11.7,20.9-6.1,41.2S8.9,233.5,17.9,231c1.7-0.5,3.2-1.5,4.4-3.1c0.5,0.1,20.4,0.8,48.5,1.9c0.5,27.8,22.6,50.6,50.7,51.6
	c28,1,51.6-20.1,54.2-47.7c45.7,1.7,84.1,3.1,84.6,2.9C283.9,230.2,290.2,178.4,274.4,120.9z M122.2,263.9
	c-18.4-0.7-32.9-15.4-33.8-33.5c21.6,0.9,46.2,1.7,69.8,2.6C156.1,251,140.5,264.6,122.2,263.9z M253.5,210.9
	c-14.5,3.6-34.7-27.7-45.1-69.8c-10.5-42.1-7.2-79.2,7.2-82.8c14.5-3.6,34.7,27.7,45.1,69.8C271.2,170.2,268,207.3,253.5,210.9z"/>
<path class="st0" d="M247.3,28.1h-178C48.7,28.1,32,44.8,32,65.4v179.3c0,20.6,16.7,37.3,37.3,37.3h178c20.6,0,37.3-16.7,37.3-37.3
	V65.4C284.6,44.8,267.9,28.1,247.3,28.1z M97.6,254.5c-11.7,0-21.2-9.4-21.3-21.1c0-11.7,9.4-21.2,21.1-21.2s21.2,9.4,21.3,21.1
	C118.8,244.9,109.3,254.4,97.6,254.5z M149.1,254.3c-0.1-40.1-32.8-72.6-72.9-72.4l-0.1-31.8c57.6-0.2,104.6,46.5,104.8,104.1
	L149.1,254.3z M208.8,254.1c-0.2-73-59.8-132.3-132.9-132l-0.1-31.8C166.4,90,240.3,163.5,240.6,254L208.8,254.1z"/>
<g class="st0">
	<rect x="23.3" y="161.9" class="st3" width="38.7" height="142"/>
	<rect x="207.1" y="149" class="st3" width="38.7" height="154.9"/>
	<rect x="145.8" y="6.8" class="st3" width="38.7" height="297"/>
	<rect x="84.5" y="129.5" class="st3" width="38.7" height="174.4"/>
	<rect x="268.4" y="71.6" class="st3" width="38.7" height="232.3"/>
</g>
<g class="st0">
	<path class="st3" d="M190.5,174.6H180c33.2-11.9,57-43.6,57-80.9c0-47.5-38.5-86-86-86c-47.6,0-86.2,38.5-86.2,86
		c0,37.3,23.8,69,57,80.9h-8.2C71,174.6-1.9,209.1-1.9,251.7v38.6h307.7v-38.6C305.9,209.1,232.9,174.6,190.5,174.6z"/>
</g>
<path class="st0" d="M223.6,41.7c-0.2-26.4-77.3-29.2-110.4-29.2H112c-20.6,0-89.2,1.6-106.6,19.1c-3.9,3.9-4.7,8-4.7,10.7
	c0,3.9,1.7,7.3,4.6,10.3l91.3,141.8l7.6,92.3h15.1l7.6-92.3l90.7-140.9c0.3-0.3,0.7-0.6,1-0.9C222.8,48.5,223.6,44.4,223.6,41.7z
	 M113.2,28.3c57.4,0,88.3,8.4,94,13.6c-6,6.1-40.1,15.8-94.9,15.9l-1-0.1v0.1C56.9,57.8,23,48.3,17,42.2
	C22.9,37,54.1,28.4,113.2,28.3z"/>
<polygon class="st0" points="296.9,109.1 222.8,179.8 239.1,280.9 149,232.3 57.9,279 76.2,178.3 3.6,106.1 105.1,92.4 151.4,1 
	195.7,93.3 "/>
<path class="st0" d="M150.5,54.9l23.4,48.7l5.4,11.3l12.4,1.9l53.4,8.3L206,162.4l-9.1,8.7l2,12.4l8.6,53.4l-47.6-25.6l-11-6
	l-11.2,5.7l-48.1,24.7l9.7-53.2l2.2-12.3l-8.9-8.9l-38.3-38.1L108,116l12.4-1.7l5.7-11.2L150.5,54.9 M151.1,1l-46.3,91.4L3.4,106.1
	L76,178.3L57.6,279l91.1-46.7l90.1,48.6l-16.3-101.1l74-70.7l-101-15.8L151.1,1L151.1,1z"/>
<path class="st0" d="M278.7,167.4v-55.1h-28.5c-2.9-11.7-7.5-22.7-13.7-32.6L256,60.1l-35.5-35.4L201.3,44
	c-10-6.4-21.1-11.2-32.8-14.2V2h-55.1v27.8c-11.8,3-22.9,7.8-32.9,14.2L61.1,24.6L25.7,60.1l19.5,19.5c-6.2,10-10.9,21-13.8,32.7H3
	v55.1h28.8c3,11.5,7.8,22.3,14,32l-20.2,20.2L61.1,255l20.4-20.4c9.7,6,20.4,10.6,31.8,13.5v29.5h55.1V248
	c11.4-2.9,22.1-7.5,31.8-13.5l20.4,20.4l35.4-35.4l-20.2-20.2c6.2-9.7,10.9-20.5,13.9-31.9L278.7,167.4L278.7,167.4z M140.8,182.8
	c-24.2,0-43.8-19.7-43.8-43.8c0-24.2,19.7-43.8,43.8-43.8c24.2,0,43.8,19.7,43.8,43.8S164.9,182.8,140.8,182.8z"/>
<path class="st4" d="M191.3,0L29.2,165.4L4.5,279.5l109.7-22.8L276.4,91.3L191.3,0z M242.1,90.8l-27.4,28l-51.8-54.2l28-28.6
	L242.1,90.8z M72.9,156.3l72.6-74.1l23.3,24.4l-71.7,75L72.9,156.3z M173.5,111.5l23.8,24.9l-72.6,74.1l-22.9-24L173.5,111.5z
	 M74.6,239.1l-30.3-28.3l7-32.3l4.3-4.3l51.8,54l-5,5.1L74.6,239.1z"/>
</svg>
