<?xml version="1.0" encoding="utf-8"?>
<!-- Generator: Adobe Illustrator 21.0.2, SVG Export Plug-In . SVG Version: 6.00 Build 0)  -->
<svg version="1.1" id="g" xmlns="http://www.w3.org/2000/svg" xmlns:xlink="http://www.w3.org/1999/xlink" x="0px" y="0px"
	 viewBox="0 0 300 300" style="enable-background:new 0 0 300 300;" xml:space="preserve">
<style type="text/css">
	.st0{display:none;}
	.st1{display:inline;}
	.st2{fill:#010101;}
	.st3{display:inline;fill:#010101;}
	.st4{display:none;fill:#010101;}
	.st5{fill:none;}
	.st6{fill:#8FC542;}
	.st7{fill:#FFFFFF;}
</style>
<g id="acq_x5F_outline" class="st0">
	<g class="st1">
		<g>
			<path class="st2" d="M125,86.6c9,9.9,17.1,18.6,17.3,18.8l2.9,3.1l4.3,0.3c27.6,1.6,52.8,11.1,69.7,25.9
				c-15.6,13.6-32.4,35.9-33,57.2c-0.4,13,9.7,25.6,19,34.3c-17.9,10.4-40.7,16.2-64.3,16.2c-22,0-42.9-4.8-60.3-13.9
				C64.3,220,52,208.1,46,194.9l-6.6-14.4l-11,11.6c-1.2,1.3-2.4,2.5-3.5,3.6c3.3-18.8,3.1-39.5,1.9-56.4l7.3,8.6l9,10.7l8-11.4
				c12.2-17.4,34.8-30.5,62-35.9l6.2-1.2l1.8-5.9C123,98,124.3,92.2,125,86.6 M110.5,53.8c7.4,15.9,4.6,33.9,0.4,47.1
				c-30.2,6-55,20.8-68.6,40.2l-30.4-35.8c0,0,15.2,81-7.6,117.8c-3.8,6.1-4.6,8.7-3.4,8.7c3.1,0,19.7-16.6,35.2-32.9
				c14.3,31.2,55.8,53.7,104.8,53.7c32.5,0,61.6-10,81.7-25.7c-13.2-9.7-26-23.7-25.7-34.8c0.6-21.4,22.5-46.2,38.2-56.4
				c-17.7-20.7-48.8-35.1-84.9-37.3C132.7,79.7,111.4,55.7,110.5,53.8L110.5,53.8z"/>
			<path class="st2" d="M262.6,176.4L262.6,176.4l4.4,0.4c11.9,0.7,19.9,7.1,19.9,12.5c0,6-9.1,12.7-22.1,12.7
				c-11.1,0-19.1-5-21.3-9.9l-1.6-3.6l2.4-3.5c2.5-3.6,7.6-6.4,13.7-7.7L262.6,176.4 M255.8,153L255.8,153L255.8,153L255.8,153z
				 M255.8,153c2.2,4.8,1.3,10.2,0.1,14.1c-9,1.8-16.3,6.2-20.4,12l-9.1-10.8c0,0,4.5,24.2-2.3,35.1c-1.1,1.8-1.4,2.6-1,2.6
				c0.9,0,6-5,10.6-9.9c4.2,9.3,16.5,16.1,31.1,16.1c18.1,0,32.8-10.3,32.8-23c0-12-13.2-21.8-29.9-22.8
				C262.5,160.9,256.1,153.6,255.8,153L255.8,153z"/>
		</g>
		<path class="st2" d="M181,128c2,0,5.6,4.8,5.6,12.5c0,7.8-3.6,12.6-5.6,12.6s-5.6-4.8-5.6-12.6S179,128,181,128 M181,122.8
			c-6,0-10.9,7.9-10.9,17.7s4.9,17.7,10.9,17.7s10.9-8,10.9-17.7C191.9,130.7,187,122.8,181,122.8L181,122.8z"/>
	</g>
</g>
<g id="acq" class="st0">
	<path class="st3" d="M197.8,193.1c0.6-22.1,22.5-47.6,38.2-58.1c-17.7-21.3-48.8-36.2-84.8-38.4c-17.5-19.2-38.8-44-39.7-45.8
		c7.4,16.4,4.6,34.9,0.4,48.5c-30.2,6.2-55,21.4-68.6,41.4L13,103.8c0,0,15.2,83.4-7.6,121.3c-13.4,22.5,10.2-1.5,31.8-24.8
		c14.2,31.9,55.7,55.2,104.6,55.2c32.5,0,61.6-10.3,81.7-26.5C210.3,218.9,197.5,204.4,197.8,193.1z M179.9,238.7
		c-8.4,4.9-17.9,8-39.3,8c-20.1,0-26.5-3.1-32.8-6.1l-2.2-1.1c-1.9-0.9-2.7-3.1-1.9-5c0.9-1.9,3.2-2.7,5-1.9l2.3,1.1
		c5.7,2.8,11.1,5.4,29.5,5.4c21.8,0,29.5-3.4,35.5-6.9c1.8-1.1,4.1-0.4,5.2,1.4C182.3,235.2,181.7,237.6,179.9,238.7z M179.6,158.2
		c-6,0-10.9-8.2-10.9-18.3s4.9-18.2,10.9-18.2s10.9,8.2,10.9,18.2S185.6,158.2,179.6,158.2z"/>
	<path class="st3" d="M268.6,166.6c-5.2-5.7-11.7-13.2-11.9-13.8c2.2,5,1.3,10.5,0.1,14.6c-9,1.9-16.3,6.4-20.4,12.3l-9.1-11.1
		c0,0,4.5,24.9-2.3,36.2c-4,6.7,3.1-0.5,9.6-7.5c4.2,9.6,16.5,16.6,31.1,16.6c18.1,0,32.8-10.6,32.8-23.7
		C298.5,177.7,285.3,167.7,268.6,166.6z M284.9,189.4c-1.8,0-3.2-2.4-3.2-5.4s1.4-5.4,3.2-5.4c1.8,0,3.3,2.4,3.3,5.4
		S286.7,189.4,284.9,189.4z"/>
</g>
<path id="fail_x5F_outline" class="st4" d="M149.2,268.3c-60.7,0-110-49.4-110-110s49.3-110.1,110-110.1s110.1,49.4,110.1,110
	S209.9,268.3,149.2,268.3z M149.2,57.8c-55.3,0-100.4,45-100.4,100.4s45,100.4,100.4,100.4c55.3,0,100.4-45,100.4-100.4
	S204.6,57.8,149.2,57.8z M195.7,214.8c-3.7,0-7.3-1.4-10-3.9c-11.1-10.1-23.7-15.5-36.5-15.5s-25.4,5.4-36.5,15.5
	c-6,5.6-15.5,5.1-21.1-0.9c-5.6-6.1-5.1-15.5,0.9-21.1c16.7-15.3,36.2-23.4,56.6-23.4s39.9,8,56.6,23.4c6.1,5.6,6.5,15,0.9,21.1
	C203.9,213,199.9,214.8,195.7,214.8z M149.2,185.7c15.3,0,30.1,6.2,43,18c2.1,1.9,5.6,1.8,7.4-0.3l0,0c1.9-2.2,1.8-5.5-0.3-7.4
	c-14.8-13.6-32.1-20.8-50.1-20.8c-17.9,0-35.3,7.2-50.1,20.8c-2.2,1.9-2.3,5.3-0.3,7.4c1.9,2.2,5.3,2.3,7.4,0.3
	C119.1,191.9,133.9,185.7,149.2,185.7z M185.2,152.9c-13.8,0-24.9-11.2-24.9-24.9s11.2-24.9,24.9-24.9s24.9,11.2,24.9,24.9
	S199,152.9,185.2,152.9z M185.2,112.7c-8.4,0-15.3,6.8-15.3,15.3s6.8,15.3,15.3,15.3c8.4,0,15.3-6.8,15.3-15.3
	S193.6,112.7,185.2,112.7z M113.7,152.9c-13.8,0-24.9-11.2-24.9-24.9s11.2-25,24.9-25s24.9,11.2,24.9,24.9S127.5,152.9,113.7,152.9z
	 M113.7,112.7c-8.4,0-15.3,6.8-15.3,15.3s6.8,15.3,15.3,15.3c8.4,0,15.3-6.8,15.3-15.3S122.1,112.7,113.7,112.7z"/>
<path id="fail" class="st4" d="M150,48.3c-60.8,0-110,49.2-110,110s49.2,110,110,110s110-49.2,110-110S210.8,48.3,150,48.3
	 M206.5,209c-2.1,2.3-4.9,3.4-7.8,3.4c-2.5,0-5.1-0.9-7.1-2.8c-12.5-11.4-26.8-17.5-41.6-17.5c-14.6,0-29,6-41.6,17.5
	c-4.3,3.9-11,3.6-14.9-0.7s-3.6-11,0.7-14.9c16.4-15.1,35.8-23,55.8-23s39.3,8,55.8,23C210.1,198,210.4,204.7,206.5,209
	 M187.7,105.7c11.6,0,21,9.4,21,21s-9.4,21-21,21s-21-9.4-21-21S176.1,105.7,187.7,105.7 M112.9,105.7c11.6,0,21,9.4,21,21
	s-9.4,21-21,21s-21-9.4-21-21S101.3,105.7,112.9,105.7"/>
<g class="st0">
	<path class="st3" d="M95.8,143.5c18.9,0,29.3,4.8,33.8,7.7V250c-3.8,3.9-14,12.4-33.8,12.4c-21.1,0-31.8-9-35.7-13.2v-96.5
		C64.9,149.2,76.1,143.5,95.8,143.5 M95.8,132.2c-33.8,0-47,15.2-47,15.2v105.5c0,0,12.5,20.7,47,20.7c32.8,0,45.1-19.7,45.1-19.7
		V146C140.9,146,129.6,132.2,95.8,132.2L95.8,132.2z"/>
	<g class="st1">
		<path class="st2" d="M203.9,28.9c20.7,0,32,5.7,36.6,8.8v163.8c-3.3,3.6-12.3,11.1-28.2,13.2V88.2c0-3.4-1.3-6.7-3.9-9.7
			c-1.4-1.7-13.4-15-43.1-18.3V39.1C170.3,35.5,182.4,28.9,203.9,28.9 M203.9,19.5c-33.8,0-48,15.2-48,15.2v34
			c32.5,1.2,44.7,15.1,45.3,15.7c0.9,1.1,1.7,2.4,1.7,3.7v136.4c0.4,0,0.6,0,1,0c32.8,0,46-19.7,46-19.7V33.2
			C249.9,33.2,237.6,19.5,203.9,19.5L203.9,19.5z"/>
	</g>
	<g class="st1">
		<path class="st2" d="M151.2,83.8c20.7,0,32,5.7,36.6,8.8v132c-3.6,3.9-13.7,12.3-31.9,13.6v-92.1c0-1.7,0-6-3.2-9.7
			c-2.1-2.5-13.3-14.4-40.1-18.1V94.1C117.6,90.5,129.8,83.8,151.2,83.8 M151.2,74.4c-33.8,0-48,15.2-48,15.2v37.1
			c30.6,1.8,41.8,15,42.3,15.6c0.9,1.1,1,2.4,1,3.7v101.6c1.5,0.1,3.1,0.2,4.7,0.2c32.8,0,46-19.7,46-19.7V88.2
			C197.3,88.2,185,74.4,151.2,74.4L151.2,74.4z"/>
	</g>
	<path class="st3" d="M110.8,216.9c-2.2-2-5.2-3.3-9.9-4l-2.7-0.4v-12.6c3,0.2,6.6,1.1,8.9,3.5l6.4-6.3c-3.9-3.8-8.4-5.6-14.3-6
		v-6.5h-7.4v6.6c-9.5,1.1-15.1,7.2-15.1,15.5c0,4.4,1.2,7.6,3.7,10.1c2.2,2.2,5.7,3.8,10,4.4l2.4,0.3v13.2
		c-4.4-0.2-8.5-1.3-11.6-4.4l-6.5,6.6c4.7,4.8,10.2,6.6,17.1,6.8v7.8h7.4v-8.2c9-1.1,15.6-6.6,15.6-15.4
		C114.8,223.3,113.5,219.6,110.8,216.9z M92.8,212c-2-0.3-3.6-1-4.8-2c-1.1-1.1-1.5-2.4-1.5-3.7c0-3.2,2.1-5.8,6.3-6.4V212z
		 M98.2,234.4v-12.5c2.7,0.4,4,0.8,5.2,1.9c1.1,1.1,1.6,2.5,1.6,4.4C104.9,231.7,102.6,233.9,98.2,234.4z"/>
</g>
<g class="st0">
	<path class="st3" d="M203.8,20.8c-33.8,0-48,15.2-48,15.2v34.2c32.5,1.2,44.8,15.1,45.4,15.7c0.9,1.1,1.7,2.4,1.7,3.7v136.7
		c0.4,0,0.6,0,1,0c32.8,0,46.1-19.8,46.1-19.8v-172C249.8,34.5,237.4,20.8,203.8,20.8z M239.9,44.6c0,0-0.1,0.1-0.2,0.1
		c-0.3,0.2-0.5,0.4-0.8,0.7c-0.1,0.1-0.3,0.3-0.4,0.4c-0.4,0.4-0.9,0.7-1.4,1.2c-5.6,4.3-17,10.9-34.6,10.9
		c-6.6,0-14.8-1.6-21.7-3.9c-0.7-0.2-1.3-0.4-2-0.7c-2.3-0.8-4.4-1.7-6.3-2.7c-0.4-0.2-0.7-0.4-1-0.5c-0.5-0.3-1.1-0.6-1.5-0.9
		c-0.4-0.2-0.6-0.4-1-0.6c-0.4-0.3-0.6-0.4-1-0.7c-1.2-0.9-2-1.8-2.2-2.7c-0.1-0.1-0.1-0.3-0.1-0.4c-0.2-0.5-0.1-1.1,0.2-1.6
		c0,0,25.1,10.7,37.6,10.7c21.2,0,37.6-10.7,37.6-10.7S240.8,43.8,239.9,44.6z"/>
	<path class="st3" d="M151,75.8c-33.8,0-48,15.2-48,15.2v37.2c30.6,1.8,41.8,15,42.3,15.6c0.9,1.1,1,2.4,1,3.7v101.8
		c1.5,0.1,3.1,0.2,4.7,0.2c32.8,0,46.1-19.8,46.1-19.8V89.6C197.1,89.6,184.7,75.8,151,75.8z M179.9,103.5L179.9,103.5
		c-3.3,2.2-7.8,4.6-13.6,6.5c-0.1,0-0.1,0-0.2,0.1c-1,0.3-2,0.6-3,0.9c-1.7,0.4-3.4,0.8-5.2,1.1c-3.2,0.5-6.6,0.8-10.3,0.8l0,0l0,0
		c-15.4,0-39.6-8.7-36.7-14.5l0,0l0,0c0,0,25.1,10.7,37.6,10.7c21.2,0,37.6-10.7,37.6-10.7S184,100.6,179.9,103.5z"/>
	<g class="st1">
		<g>
			<path class="st5" d="M55.8,156.2c-2.9,5.8,21.2,14.5,36.7,14.5c26.1,0,38.6-14.5,38.6-14.5s-16.4,10.7-37.6,10.7
				C80.8,166.9,55.8,156.2,55.8,156.2z"/>
			<path class="st5" d="M100.5,214.5l-2.8-0.4v-12.7c3,0.2,6.6,1.2,9,3.5l6.4-6.3c-3.9-3.8-8.4-5.6-14.4-5.9v-6.5h-7.4v6.6
				c-9.5,1-15.2,7.2-15.2,15.5c0,4.3,1.2,7.6,3.7,10.1c2.2,2.2,5.7,3.8,10,4.3l2.3,0.3v13.1c-4.3-0.2-8.5-1.3-11.5-4.3l-6.6,6.6
				c4.7,4.8,10.2,6.7,17.1,6.8v7.9h7.4v-8.2c9.1-1.1,15.6-6.6,15.6-15.4c0-4.6-1.2-8.3-4-10.9C108.3,216.6,105.3,215.3,100.5,214.5z
				 M92.4,213.7c-2-0.3-3.6-1-4.8-2c-1.1-1-1.5-2.4-1.5-3.7c0-3.2,2.1-5.9,6.3-6.4V213.7L92.4,213.7z M97.7,236.1v-12.5
				c2.7,0.4,4,0.8,5.1,1.9c1.1,1,1.6,2.6,1.6,4.3C104.5,233.4,102,235.6,97.7,236.1z"/>
			<path class="st2" d="M86.1,208c0,1.3,0.4,2.7,1.5,3.7c1.2,1.1,2.8,1.8,4.8,2v-12.2C88.1,202.1,86.1,204.8,86.1,208z"/>
			<path class="st2" d="M95.4,133.8c-33.8,0-47.1,15.2-47.1,15.2v105.8c0,0,12.6,20.8,47.1,20.8c32.8,0,45.2-19.8,45.2-19.8V147.5
				C140.7,147.5,129.3,133.8,95.4,133.8z M98.8,245v8.2h-7.4v-7.9c-7-0.2-12.4-2-17.1-6.8l6.6-6.6c3,3,7.2,4.3,11.5,4.3V223
				l-2.3-0.3c-4.3-0.6-7.9-2.2-10-4.3c-2.5-2.5-3.7-5.8-3.7-10.1c0-8.3,5.7-14.6,15.2-15.5v-6.6H99v6.5c5.9,0.4,10.4,2.2,14.4,5.9
				l-6.4,6.3c-2.4-2.3-5.9-3.3-9-3.5v12.7l2.8,0.4c4.7,0.7,7.7,2,9.9,4.1c2.8,2.7,4,6.3,4,10.9C114.5,238.4,107.8,243.9,98.8,245z
				 M92.4,170.7c-15.4,0-39.6-8.7-36.7-14.5c0,0,25.1,10.7,37.6,10.7c21.2,0,37.6-10.7,37.6-10.7S118.5,170.7,92.4,170.7z"/>
			<path class="st2" d="M97.7,223.6v12.5c4.3-0.5,6.7-2.7,6.7-6.3c0-1.8-0.5-3.4-1.6-4.3C101.8,224.4,100.5,223.9,97.7,223.6z"/>
		</g>
	</g>
</g>
<g>
	<circle class="st6" cx="149.5" cy="149.5" r="146.5"/>
	<path class="st7" d="M74.6,228.7c0,0,31.8,29.1,76.3,18.6c36.7-8.7,52.6-40.8,52.6-40.8l20.9,16.5l-9.6-88.3l-80.9,35.8l25.4,7.5
		c0,0-4.7,26.3-22.9,39.1C118.2,229.9,74.6,228.7,74.6,228.7z"/>
	<path class="st7" d="M224.3,80.3c0,0-28.8-32.1-74.1-26c-37.3,5-56.3,35.5-56.3,35.5L74.7,71.4l0.9,88.8l84-27.7l-24.6-10
		c0,0,7.2-25.7,26.6-36.7C181.1,74.8,224.3,80.3,224.3,80.3z"/>
</g>
</svg>
