<?xml version="1.0" encoding="utf-8"?>
<!-- Generator: Adobe Illustrator 21.0.2, SVG Export Plug-In . SVG Version: 6.00 Build 0)  -->
<svg version="1.1" id="g" xmlns="http://www.w3.org/2000/svg" xmlns:xlink="http://www.w3.org/1999/xlink" x="0px" y="0px"
	 viewBox="0 0 301.6 294.6" style="enable-background:new 0 0 301.6 294.6;" xml:space="preserve">
<style type="text/css">
	.st0{fill:#007BB2;}
</style>
<g>
	<rect x="96.1" y="125.7" class="st0" width="23.1" height="74.4"/>
	<path class="st0" d="M178.1,123.9c-11.2,0-18.8,6.2-21.9,12h-0.3v-10.2h-22.2v74.4h23.1v-36.8c0-9.7,1.8-19.1,13.9-19.1
		c11.9,0,12,11.1,12,19.7v36.2h23.1v-40.8C205.8,139.3,201.5,123.9,178.1,123.9z"/>
	<path class="st0" d="M107.7,88.8c-7.4,0-13.4,6-13.4,13.4s6,13.4,13.4,13.4s13.4-6,13.4-13.4S115,88.8,107.7,88.8z"/>
	<path class="st0" d="M0.8,0.8v293h300V0.8H0.8z M228.8,211.9c0,6.2-5.2,11.3-11.5,11.3H84.5c-6.3,0-11.5-5-11.5-11.3V78.5
		c0-6.2,5.2-11.2,11.5-11.2h132.8c6.4,0,11.5,5,11.5,11.2V211.9z M239.5,193.2h-2.2v6.9h-1.2v-6.9h-2.2V192h5.6L239.5,193.2
		L239.5,193.2z M249.1,200.1h-1.2v-6.2l-2.5,6.2h-0.8l-2.5-6.2v6.2h-1.2V192h1.7l2.4,6l2.4-6h1.7L249.1,200.1L249.1,200.1z"/>
</g>
</svg>
