<?xml version="1.0" encoding="utf-8"?>
<!-- Generator: Adobe Illustrator 21.0.2, SVG Export Plug-In . SVG Version: 6.00 Build 0)  -->
<svg version="1.1" id="Layer_1" xmlns="http://www.w3.org/2000/svg" xmlns:xlink="http://www.w3.org/1999/xlink" x="0px" y="0px"
	 viewBox="0 0 236.1 300" style="enable-background:new 0 0 236.1 300;" xml:space="preserve">
<style type="text/css">
	.st0{display:none;}
	.st1{display:inline;fill:#1E6988;}
	.st2{display:none;fill:#1E6988;}
	.st3{display:inline;}
	.st4{display:inline;fill:none;}
	.st5{display:inline;fill:#FFFFFF;}
	.st6{fill:#FFFFFF;}
	.st7{display:none;fill:#57BA6A;}
	.st8{fill:#9DC24E;}
	.st9{fill:none;}
</style>
<path class="st0" d="M57.8,392.2c0-23.8-12.1-45.5-31.9-61.8H26c0,0,4.8-11.5,3.9-29.8c-0.1-2.3-22.5,17.3-22.5,17.3l0.1,0.1
	c-20.1-10.9-44.8-17.4-71.5-17.4c-59.6,0-109.1,31.9-119.9,74.3v-0.3c-6.5,2.4-36.6-13.9-37.1-38.7c0,51.4,35,52.3,35,52.3
	s-0.1,2.6-0.1,4c0,27,15.6,51.3,40.3,68.1l0,0l-12.8,48.8h51l7.3-29.3l0,0c11.4,2.7,23.6,4.1,36.1,4.1c11.2,0,22.1-1.2,32.4-3.3
	h-0.1v28.5h51L7.3,466.4c16.1-8.8,29.2-20.4,38-34l16.5,8.9l16.5-49L57.8,392.2L57.8,392.2z M-35.4,428.2c-1.4,3.1-3.5,5.9-6.4,8.1
	c-2.8,2.3-6.3,4.1-10.4,5.3c-2.3,0.7-4.8,1.2-7.5,1.5v10.6h-14.8v-10.9c-1.7-0.3-3.4-0.6-5.1-1c-4.2-1.1-7.8-2.8-11-5.1
	s-5.7-5.3-7.6-8.9c-1.9-3.6-2.8-7.9-2.7-12.8h17.1c0,2.7,0.5,5,1.4,6.9c1,1.9,2.3,3.4,3.9,4.5c1.6,1.2,3.5,2,5.7,2.6
	c2.2,0.5,4.4,0.8,6.7,0.8c1.6,0,3.3-0.1,5-0.4c1.8-0.3,3.5-0.8,5.1-1.5s2.9-1.8,3.9-3.1s1.6-3,1.6-5c0-2.2-0.7-3.9-2.1-5.3
	s-3.2-2.5-5.4-3.4s-4.8-1.7-7.6-2.4c-2.9-0.7-5.7-1.4-8.7-2.2c-3-0.7-5.9-1.7-8.7-2.8c-2.9-1.1-5.4-2.5-7.7-4.2
	c-2.2-1.7-4.1-3.9-5.4-6.5c-1.4-2.6-2.1-5.7-2.1-9.4c0-4.1,0.9-7.7,2.7-10.7s4.1-5.6,6.9-7.6c2.9-2,6.1-3.5,9.7-4.5
	c2.1-0.5,4.1-0.9,6.2-1.1v-9.8H-58v10.9c0.6,0.1,1.3,0.2,1.9,0.3c3.8,0.9,7.3,2.5,10.3,4.5c3,2.1,5.4,4.8,7.1,8.1
	c1.8,3.3,2.6,7.2,2.6,11.9H-53c-0.1-2.4-0.7-4.4-1.5-6c-0.9-1.6-2-2.8-3.4-3.7c-1.4-0.9-3-1.5-4.9-1.9s-3.8-0.6-6-0.6
	c-1.4,0-2.8,0.2-4.3,0.5c-1.4,0.3-2.7,0.8-3.9,1.6c-1.1,0.7-2.1,1.7-2.9,2.8s-1.1,2.5-1.1,4.3c0,1.6,0.3,2.8,0.9,3.8
	s1.8,1.9,3.5,2.7c1.8,0.8,4.2,1.6,7.3,2.5c3.1,0.8,7.2,1.9,12.2,3.1c1.5,0.3,3.6,0.9,6.2,1.6c2.7,0.8,5.3,2.1,7.9,3.8
	c2.6,1.7,4.9,4.1,6.8,6.9c1.9,2.9,2.9,6.6,2.9,11.1C-33.2,421.7-34,425.1-35.4,428.2 M-29.7,335c-64.9-13.8-68.4,4-79.8,5.6
	c0,0-11.1-2.8,0.6-11.9c22.7-17.1,76.9-10,84.9-0.8C-21.6,334.8-29.7,335-29.7,335 M23.1,390.3c-5.3,0-9.6-7-9.6-15.6
	s4.3-15.6,9.6-15.6s9.7,7,9.7,15.6S28.4,390.3,23.1,390.3"/>
<path class="st0" d="M-138.3,370.5c0-15.2,5.2-29.2,13.7-40.4c-4.1-1.2-8.4-2.1-12.9-2.1c-25.2,0.1-45.5,20.4-45.5,45.6
	c0,17.9,10.5,33.3,25.5,40.7h-0.3c-22.5,0-61.2,18.3-61.2,40.8v20.4h42.3v-13.8c0-25.7,24.6-44.7,49.7-54.3
	C-134.2,396.8-138.3,384.1-138.3,370.5 M15.9,414.3h-0.3c15-7.5,25.5-22.8,25.5-40.7c0-25.2-20.4-45.5-45.6-45.5
	c-4.9,0-9.5,1-13.9,2.4c8.4,11.2,13.5,25,13.5,40c0,13.5-4.1,26-11,36.5c25.4,9.5,50.7,28.7,50.7,54.7v13.8h42.3v-20.4
	C77.1,432.6,38.4,414.3,15.9,414.3 M-48.8,417.2h-6c19.2-6.9,32.9-25.2,32.9-46.7c0-27.5-22.3-49.7-49.7-49.7
	c-27.5,0-49.8,22.2-49.8,49.7c0,21.5,13.7,39.8,32.9,46.7h-4.8c-24.5,0-66.6,19.9-66.6,44.5V484H17.8v-22.3
	C17.9,437.2-24.3,417.2-48.8,417.2"/>
<g class="st0">
	<path class="st1" d="M-23.6,439.5c0.6-22.1,22.5-47.6,38.2-58.1c-17.7-21.3-48.8-36.2-84.8-38.4c-17.5-19.1-38.8-43.9-39.7-45.8
		c7.4,16.4,4.6,34.9,0.4,48.5c-30.2,6.2-55,21.4-68.6,41.4l-30.3-36.8c0,0,15.2,83.4-7.6,121.3c-13.4,22.4,10.2-1.6,31.8-24.9
		c14.2,32,55.7,55.2,104.6,55.2c32.5,0,61.6-10.3,81.7-26.5C-11.1,465.4-23.9,450.9-23.6,439.5z M-41.5,485.1
		c-8.4,4.9-17.9,8-39.3,8c-20.1,0-26.5-3.1-32.8-6.1l-2.2-1.1c-1.9-0.9-2.7-3.1-1.9-5c0.9-1.9,3.2-2.7,5-1.9l2.3,1.1
		c5.7,2.8,11.1,5.4,29.5,5.4c21.8,0,29.5-3.4,35.5-6.9c1.8-1.1,4.1-0.4,5.2,1.4C-39.1,481.7-39.7,484-41.5,485.1z M-41.8,404.8
		c-6,0-10.9-8.2-10.9-18.3s4.9-18.2,10.9-18.2c6,0,10.9,8.2,10.9,18.2S-35.8,404.8-41.8,404.8z"/>
	<path class="st1" d="M47.2,413.1c-5.2-5.7-11.7-13.2-11.9-13.8c2.2,5,1.3,10.5,0.1,14.6c-9,1.9-16.3,6.4-20.4,12.3l-9.1-11.1
		c0,0,4.5,24.9-2.3,36.2c-4,6.7,3.1-0.5,9.6-7.5c4.2,9.6,16.5,16.6,31.1,16.6c18.1,0,32.8-10.6,32.8-23.7
		C77.1,424.3,63.9,414.2,47.2,413.1z M63.5,435.8c-1.8,0-3.2-2.4-3.2-5.4s1.4-5.4,3.2-5.4s3.3,2.4,3.3,5.4S65.3,435.8,63.5,435.8z"
		/>
</g>
<g class="st0">
	<path class="st1" d="M43.1,339.2c-0.7-10.4-3-16.6-7.2-26.1C21.3,279.9-29,258-57,285.1c-22.4,21.7-18.2,50.3-27.5,77.1
		c-23,67-75.9,68.6-136.6,47.7c32.9,41.9,82.8,88,136.6,88.1v29.2h2.5l-2.4,0.4l3.7,22.7l4.8-0.9l-3-18.5l22.1,6.9l1.3-5.1l-18-5.6
		l15.6-5.3l-1.6-5.1l-20.2,6.9v-25.5c1.5-0.1,3-0.2,4.5-0.3c8-0.8,15.9-2.9,23.8-6.2v21h2.5l-2.4,0.4l3.7,22.7l4.9-0.9l-3-18.5
		l22.1,6.8l1.4-5.2l-18-5.5l15.6-5.3l-1.5-5.1l-20.1,6.9v-19.5C-4.1,469.5,34.2,422.1,42,372l37-14.1L43.1,339.2z M-18.5,345.1
		c-9.4,0-17.1-8.3-17.1-18.5s7.7-18.5,17.1-18.5s17.1,8.3,17.1,18.5C-1.4,336.8-9.1,345.1-18.5,345.1z"/>
</g>
<path class="st2" d="M53.3,555.7c0,16.3-13.2,29.5-29.5,29.5h-192.5c-16.3,0-29.5-13.2-29.5-29.5v-241
	c-0.1-16.3,13.2-29.5,29.5-29.5H23.8c16.3,0,29.5,13.2,29.5,29.5L53.3,555.7L53.3,555.7z M-130.2,377.5l-0.6-63l-11.1,0.1l0.4,38.6
	l-22.8-38.4l-9.9,0.1l0.6,63l11.1-0.1l-0.4-38.7l22.8,38.4H-130.2z M-80.3,377l-0.1-11l-26.3,0.2l-0.1-15.3l22.4-0.2l-0.1-11
	l-22.4,0.2l-0.1-14.8l26.3-0.2l-0.1-11l-37.4,0.3l0.6,63L-80.3,377z M-7.2,313.4l-11.5,0.1l-8.5,39.8l-10.7-39.6l-8.3,0.1l-10,39.8
	l-9.1-39.6l-11.6,0.1l15.7,62.9l9.2-0.1l10.1-38.3l10.8,38.1l9.2-0.1L-7.2,313.4z M36.2,357.4c-0.1-5.6-1.4-10.2-4.5-13.3
	c-2.4-2.4-5.7-4-10.9-4.8l-6.7-1c-2.3-0.3-4.2-1.3-5.3-2.4c-1.2-1.2-1.7-2.9-1.7-4.5c0-4.3,2.8-8,8.7-8c3.7,0,8.1,0.5,11.7,4.2
	l6.9-7.8c-4.9-5.2-10.6-7.2-18.4-7.2c-12.3,0.1-19.7,8.1-19.6,19.3c0.1,5.3,1.4,9.4,4.2,12.3c2.6,2.7,6.2,4.4,11,5.1l6.9,1
	c2.6,0.4,3.9,1,5,2.2c1.2,1.2,1.8,3.1,1.8,5.3c0.1,5-3.4,7.8-10,7.9c-5.3,0.1-10.1-1.2-13.8-5.2l-7.1,8c5.6,6.2,12.2,8.2,20.8,8.1
	C27.2,376.6,36.3,369.6,36.2,357.4z M-59.9,470h93.5v-68.1h-93.5V470z M-84.3,407.1h-92.3v7.4h92.2L-84.3,407.1L-84.3,407.1z
	 M-84.3,435.3h-92.3v7.4h92.2L-84.3,435.3L-84.3,435.3z M-84.3,463.4h-92.3v7.4h92.2L-84.3,463.4L-84.3,463.4z M33.6,491.6h-210.2
	v7.4H33.6L33.6,491.6L33.6,491.6z M33.6,519.8h-210.2v7.4H33.6L33.6,519.8L33.6,519.8z M33.6,547.9h-210.2v7.4H33.6L33.6,547.9
	L33.6,547.9z"/>
<path class="st2" d="M-87.1,583.1c-6.8,0-13.2-2.7-18.1-7.5L-214,466.7c-10-10-10-26.2,0-36.1L-83.5,300
	c7.8-7.8,22.1-13.7,33.1-13.7H49.7c14.1,0,25.6,11.5,25.6,25.6v100c0,11.1-5.9,25.4-13.7,33.2L-69,575.6
	C-73.9,580.4-80.3,583.1-87.1,583.1z M37.6,352.2c0-13.7-11.1-24.8-24.8-24.8S-12,338.5-12,352.2S-0.9,377,12.8,377
	S37.6,365.9,37.6,352.2"/>
<path class="st0" d="M56.2,573.3V375H-72.6v-49.5h-128.8v247.7h-19.8v9.9H76.1v-9.9L56.2,573.3L56.2,573.3z M-3.2,394.9h39.6v39.6
	H-3.2V394.9L-3.2,394.9z M-3.2,444.4h39.6V484H-3.2V444.4L-3.2,444.4z M-3.2,494h39.6v39.6H-3.2V494L-3.2,494z M-52.8,394.9h39.6
	v39.6h-39.6V394.9L-52.8,394.9z M-52.8,444.4h39.6V484h-39.6V444.4L-52.8,444.4z M-52.8,494h39.6v39.6h-39.6V494L-52.8,494z
	 M-132,345.3h39.6v39.6H-132V345.3z M-132,394.9h39.6v39.6H-132V394.9z M-132,444.4h39.6V484H-132V444.4z M-132,494h39.6v39.6H-132
	V494z M-181.6,345.3h39.6v39.6h-39.6V345.3z M-181.6,394.9h39.6v39.6h-39.6V394.9z M-181.6,444.4h39.6V484h-39.6V444.4z M-181.6,494
	h39.6v39.6h-39.6V494z M-151.9,543.5h29.7v29.7h-29.7V543.5z M-23,543.5H6.7v29.7H-23V543.5z"/>
<path class="st0" d="M65.9,420.6c-15.8-57.4-48.8-101.7-71.3-92.1c-1,0.4-3.3,1.7-6.5,3.7l-0.4,0.2c-15.6,14.8-17.9,59.9-4.3,109.5
	c0.9,3.4-1.1,7-4.5,7.9s-7-1.1-7.9-4.5l0,0c-10.9-39.4-13.9-74.1-7.4-97.9c-49.9,32-143.8,94.1-168.7,110.5c-2-0.8-3.9-1-5.7-0.5
	c-9,2.5-11.7,20.9-6.1,41.2s17.3,34.7,26.3,32.2c1.7-0.5,3.2-1.5,4.4-3.1c0.5,0.1,20.4,0.8,48.5,1.9c0.5,27.8,22.6,50.6,50.7,51.6
	c28,1,51.6-20.1,54.2-47.7c45.7,1.7,84.1,3.1,84.6,2.9C75.5,529.9,81.7,478,65.9,420.6z M-86.3,563.6c-18.4-0.7-32.9-15.4-33.8-33.5
	c21.6,0.9,46.2,1.7,69.8,2.6C-52.4,550.7-68,564.3-86.3,563.6z M45.1,510.5c-14.5,3.6-34.7-27.7-45.1-69.8
	c-10.5-42.1-7.2-79.2,7.2-82.8c14.5-3.6,34.7,27.7,45.1,69.8C62.8,469.9,59.5,507,45.1,510.5z"/>
<path class="st0" d="M38.8,327.8h-178c-20.6,0-37.3,16.7-37.3,37.3v179.3c0,20.6,16.7,37.3,37.3,37.3h178
	c20.6,0,37.3-16.7,37.3-37.3V365.1C76.1,344.5,59.4,327.8,38.8,327.8z M-110.9,554.1c-11.7,0-21.2-9.4-21.3-21.1
	c0-11.7,9.4-21.2,21.1-21.2c11.7,0,21.2,9.4,21.3,21.1C-89.7,544.6-99.2,554.1-110.9,554.1z M-59.4,554
	c-0.1-40.1-32.8-72.6-72.9-72.4l-0.1-31.8c57.6-0.2,104.6,46.5,104.8,104.1L-59.4,554z M0.4,553.8c-0.2-73-59.8-132.3-132.9-132
	l-0.1-31.8c90.5-0.3,164.4,73.1,164.7,163.7L0.4,553.8z"/>
<g class="st0">
	<rect x="-185.2" y="461.6" class="st3" width="38.7" height="142"/>
	<rect x="-1.3" y="448.7" class="st3" width="38.7" height="154.9"/>
	<rect x="-62.7" y="306.5" class="st3" width="38.7" height="297"/>
	<rect x="-124" y="429.2" class="st3" width="38.7" height="174.4"/>
	<rect x="60" y="371.2" class="st3" width="38.7" height="232.3"/>
</g>
<g class="st0">
	<path class="st3" d="M-18,474.3h-10.4c33.2-11.9,56.9-43.6,56.9-80.9c0-47.5-38.5-86-86-86c-47.6,0-86.2,38.5-86.2,86
		c0,37.3,23.8,69,57,80.9H-95c-42.5,0-115.4,34.5-115.4,77.1V590H97.3v-38.6C97.4,508.8,24.4,474.3-18,474.3z"/>
</g>
<path class="st0" d="M15.1,341.4c-0.2-26.4-77.3-29.2-110.4-29.2h-1.3c-20.5,0-89.1,1.5-106.5,19.1c-3.9,3.9-4.7,8-4.7,10.7
	c0,3.9,1.7,7.3,4.6,10.3l91.3,141.8l7.6,92.3h15.1l7.6-92.3L9.1,353.2c0.3-0.3,0.7-0.6,1-0.9C14.3,348.2,15.1,344.1,15.1,341.4z
	 M-95.2,328c57.4,0,88.3,8.4,94,13.6c-6,6.1-40.1,15.8-94.9,15.9l-1-0.1v0.1c-54.4,0-88.3-9.5-94.3-15.6
	C-185.6,336.7-154.4,328.1-95.2,328z"/>
<polygon class="st0" points="88.4,408.8 14.4,479.5 30.6,580.6 -59.5,532 -150.6,578.7 -132.3,478 -204.9,405.7 -103.4,392 
	-57.1,300.7 -12.8,393 "/>
<path class="st0" d="M-57.9,354.6l23.4,48.7l5.4,11.3l12.4,1.9l53.4,8.3l-39.1,37.3l-9.1,8.7l2,12.4l8.6,53.4L-48.5,511l-11-6
	l-11.2,5.7l-48.1,24.7l9.7-53.2l2.2-12.3l-8.9-8.9l-38.2-38.1l53.6-7.2L-88,414l5.7-11.2L-57.9,354.6 M-57.4,300.7l-46.2,91.3
	l-101.5,13.7l72.6,72.2l-18.4,100.8l91.1-46.7l90.1,48.6L14.1,479.5l74-70.7L-13,393L-57.4,300.7L-57.4,300.7z"/>
<path class="st0" d="M70.2,467.1V412H41.7c-2.9-11.7-7.5-22.7-13.7-32.6l19.6-19.6l-35.5-35.4l-19.3,19.3
	c-10-6.4-21.1-11.2-32.8-14.2v-27.8h-55.1v27.8c-11.8,3-22.9,7.8-32.9,14.2l-19.4-19.4l-35.4,35.5l19.5,19.5
	c-6.2,10-10.9,21-13.8,32.7h-28.4v55.1h28.8c3,11.5,7.8,22.3,14,32l-20.2,20.2l35.5,35.4l20.4-20.3c9.7,6,20.4,10.6,31.8,13.5v29.5
	h55.1v-29.6c11.4-2.9,22.1-7.5,31.8-13.5l20.4,20.4l35.4-35.4l-20.2-20.2c6.2-9.7,10.9-20.5,13.9-31.9h29V467.1L70.2,467.1z
	 M-67.7,482.5c-24.2,0-43.8-19.7-43.8-43.8c0-24.2,19.7-43.8,43.8-43.8c24.2,0,43.8,19.7,43.8,43.8
	C-23.9,462.8-43.5,482.5-67.7,482.5z"/>
<g class="st0">
	<polygon class="st3" points="-152.3,566.7 -190.8,530.8 -169.4,505.6 -130.9,541.6 	"/>
	<path class="st3" d="M-204,579.2l24.7-114.1l162.1-165.4L67.9,391L-94.2,556.4L-204,579.2z M-157.2,478.1l-14.9,68.6l66-13.7
		L33.6,390.5l-51.2-54.9L-157.2,478.1z"/>
	<polygon class="st3" points="-7.8,439.6 -74.8,369.5 -57.6,351.6 9.4,421.7 	"/>
	<polygon class="st3" points="-96.7,532.6 -163.7,462.5 -146.5,444.6 -79.5,514.7 	"/>
	<polygon class="st3" points="-109,488.7 -113.7,483.8 -23.8,389.7 -19.1,394.6 	"/>
</g>
<g class="st0">
	<path class="st3" d="M-67.9,305.4c-75.5,0-136.6,61.1-136.6,136.6s61.2,136.6,136.6,136.6S68.7,517.5,68.7,442
		S7.5,305.4-67.9,305.4z M4.4,489.8c5,5,5,13.1,0,18.1c-2.5,2.5-5.8,3.7-9,3.7s-6.5-1.2-9-3.7l-51.1-51l-51.1,51
		c-2.5,2.5-5.8,3.7-9,3.7c-3.3,0-6.5-1.2-9-3.7c-5-5-5-13.1,0-18.1l51-51l-51-51c-5-5-5-13.1,0-18.1s13.1-5,18.1,0l51.1,51l51.1-51
		c5-5,13.1-5,18.1,0s5,13.1,0,18.1l-51,51L4.4,489.8z"/>
</g>
<g class="st0">
	<path class="st3" d="M-61.7,565.6l-86.6-237c-1.7-4.7-6.9-7.2-11.7-5.4c-4.7,1.7-7.2,7-5.4,11.7l86.6,237c1.3,3.7,4.8,6,8.6,6
		c1,0,2.1-0.2,3.1-0.6C-62.4,575.6-60,570.3-61.7,565.6z"/>
</g>
<g class="st0">
	<polygon class="st4" points="-24.9,482.7 -82.1,359 -82.1,359 	"/>
	<path class="st4" d="M-106.5,311.7l-3.8-13.7L-106.5,311.7z"/>
	<g class="st3">
		<polygon points="-110.3,298 -106.5,311.7 -56,494.1 -34.8,505.3 -33.8,504.9 -24.9,482.7 -82.1,359 		"/>
		<path d="M-196,447.4c0,21.7,4.8,42.2,13.2,60.8l48.2-21.8c-5.4-11.9-8.5-25.1-8.5-39c0-34,18.1-63.7,45.1-80.4l-14.6-52.4
			C-161.9,338.5-196,388.9-196,447.4z"/>
		<path d="M-48.3,299.8c-17.5,0-34.1,3.2-49.7,8.8l22.3,48.3c8.7-2.6,17.8-4.2,27.4-4.2c52.3,0,94.8,42.4,94.8,94.8
			c0,13.9-3,27.1-8.4,39l48.2,21.8c8.4-18.6,13.2-39.1,13.2-60.8C99.4,365.9,33.2,299.8-48.3,299.8z"/>
	</g>
	<path class="st5" d="M-110.3,298l5.9,12.8c2-0.8,4.2-1.5,6.3-2.2l-6.1-13.4l-12.5,4.6l4.1,14.8c2-1,4-2,6.1-2.9L-110.3,298z"/>
</g>
<g class="st0">
	<path class="st3" d="M-26.3,351.3c10.9,0,19.7-8.8,19.7-19.7s-8.8-19.7-19.7-19.7S-46,320.7-46,331.6S-37.2,351.3-26.3,351.3z
		 M-160,351.3c10.9,0,19.7-8.8,19.7-19.7s-8.8-19.7-19.7-19.7s-19.7,8.8-19.7,19.7S-170.9,351.3-160,351.3z M-147.6,358.8h-31.5
		c-8.7,0-15.7,7.1-15.7,15.3v47.7h15.7v70.7h39.3v-55h-7.9L-147.6,358.8L-147.6,358.8z M-6,358.8h-31.5v78.7h-7.9v55H-6v-70.8H9.7
		v-47.6C9.7,365.9,2.6,358.8-6,358.8z M-68.9,350.9h-47.2c-8.6,0-15.7,7.8-15.7,16.4v62.2h15.7v78.7h47.2v-78.7h15.7v-62.1
		C-53.2,358.7-60.3,350.9-68.9,350.9z M-93.2,343.1c13,0,23.6-10.6,23.6-23.6c0-13.1-10.6-23.6-23.6-23.6s-23.6,10.6-23.6,23.6
		C-116.7,332.5-106.2,343.1-93.2,343.1z"/>
</g>
<g class="st0">
	<path class="st3" d="M-93.3,499.4c-56.6,0-102.6-46-102.6-102.6s46-102.6,102.6-102.6S9.3,340.2,9.3,396.8S-36.7,499.4-93.3,499.4z
		 M-93.3,318.8c-43,0-78,35-78,78s35,78,78,78s78-35,78-78S-50.2,318.8-93.3,318.8z"/>
	<path class="st3" d="M-93.3,451.6c-30.2,0-54.8-24.6-54.8-54.8c0-30.2,24.6-54.8,54.8-54.8s54.8,24.6,54.8,54.8
		S-63,451.6-93.3,451.6z M-93.3,353.3c-24,0-43.5,19.5-43.5,43.5s19.5,43.5,43.5,43.5s43.5-19.5,43.5-43.5S-69.3,353.3-93.3,353.3z"
		/>
	<path class="st3" d="M-93.3,417c-11.1,0-20.2-9.1-20.2-20.2s9.1-20.2,20.2-20.2s20.2,9.1,20.2,20.2C-73,407.9-82.1,417-93.3,417z"
		/>
</g>
<path class="st0" d="M-9.5,456.4c12.3-16.9,19.6-37.7,19.6-60.3c0-56.9-46.1-103-103-103s-103,46.1-103,103
	c0,22.3,7.2,42.9,19.2,59.8v0.7h0.5c18.7,25.7,49,42.6,83.2,42.6c34.3,0,64.5-16.8,83.3-42.6h0.1L-9.5,456.4L-9.5,456.4z M-92.9,485
	c-2.3,0-4.6-0.2-6.8-0.3c-6.5-8.6-12.3-18-17.3-28h45.8c-5,10.1-10.9,19.5-17.4,28.2C-90,484.8-91.5,485-92.9,485z M-123.7,441
	c-4.1-11.6-6.7-24-7.3-37.2h73.8c-0.6,13.1-3.2,25.5-7.3,37.2H-123.7z M-92.9,307.4c0.9,0,1.8,0.1,2.7,0.1
	c8.7,9.8,15.6,20.4,20.8,31.6h-49.5c5.2-11.2,12.1-21.7,20.7-31.5C-96.4,307.5-94.7,307.4-92.9,307.4z M-64,352.5
	c3.8,11.4,6,23.5,6.7,36.4h-73.6c0.7-12.9,2.9-25,6.7-36.4H-64z M-4.5,388.9H-43c-0.8-12.7-3.3-24.9-7.3-36.4h34.7
	C-9.5,363.4-5.5,375.7-4.5,388.9z M-145.3,388.9h-36.1c1.1-13.2,5-25.5,11.2-36.4h32.3C-141.9,364-144.4,376.2-145.3,388.9z
	 M-145.4,403.8c0.6,12.9,2.8,25.4,6.7,37.2h-30.8c-6.5-11.1-10.7-23.7-11.8-37.2H-145.4z M-42.8,403.8h38.4
	c-1.1,13.5-5.3,26.1-11.8,37.2h-33.2C-45.7,429.2-43.4,416.7-42.8,403.8z M-24.9,339.1h-30.9c-5.1-10.8-11.5-20.9-19.1-29.9
	C-55,313.3-37.5,324.1-24.9,339.1z M-114,310c-7.3,8.8-13.4,18.6-18.4,29.1h-28.5C-149,324.9-132.6,314.5-114,310z M-157.9,456.6
	h25.5c4.2,8.9,9.4,17.3,15.3,25C-132.9,477.1-146.9,468.3-157.9,456.6z M-71.8,482.3c6.2-7.9,11.5-16.6,15.9-25.7H-28
	C-39.6,469.1-54.7,478.2-71.8,482.3z"/>
<g class="st0">
	<g class="st3">
		<path class="st6" d="M-99.4,496.4c3.3,0,6.6-1.3,9.2-3.8l96.3-96.3l-96.3-96.2c-5.1-5.1-13.3-5.1-18.3,0c-5.1,5.1-5.1,13.3,0,18.3
			l77.9,77.9l-77.9,77.9c-5.1,5.1-5.1,13.3,0,18.3C-106,495.1-102.7,496.4-99.4,496.4z"/>
	</g>
	<g class="st3">
		<path d="M-99.4,495.4c3.3,0,6.6-1.3,9.2-3.8l96.3-96.3L-90.2,299c-5.1-5.1-13.3-5.1-18.3,0c-5.1,5.1-5.1,13.3,0,18.3l77.9,77.9
			l-77.9,77.9c-5.1,5.1-5.1,13.3,0,18.3C-106,494.1-102.7,495.4-99.4,495.4z"/>
	</g>
</g>
<path class="st0" d="M42.7,308.4L-25.6,375l-46-47.8l69.1-67.5c-11.8-5.6-24.8-9.1-38.8-9.1c-49.9,0-90.3,40.4-90.3,90.3
	c0,15,4,28.9,10.5,41.3l-115,112.1l46,47.8l119.3-116.3c9.3,3.2,19.1,5.3,29.5,5.3C8.6,431.2,49,390.8,49,341
	C49,329.5,46.7,318.6,42.7,308.4z"/>
<g class="st0">
	<path class="st3" d="M29,273.8c-30.7-30.7-81-30.7-111.6,0l-54.2,54.2c-4.8,4.8-8.5,10.1-11.8,15.6c-10.9,18.4-13.6,40.1-8.4,60.3
		c3.4,13.1,9.9,25.5,20.1,35.7c3.2,3.2,6.6,5.9,10.2,8.4l27.5-27.5c0.4-0.3,0.5-1,0.8-1.4c-3.8-1.9-7.5-4.2-10.6-7.4
		c-7.4-7.4-11.5-17.3-11.5-27.9c0-3.6,0.6-7.1,1.5-10.5c1.8-6.5,5-12.6,9.9-17.5l54.2-54.2c7.4-7.4,17.3-11.5,27.9-11.5
		s20.5,4.1,27.9,11.5s11.5,17.3,11.5,27.9S8.3,350,0.9,357.4l-12,12l3.9,14.9c2.9,11.1,3.8,22.6,3.1,33.9l33-33
		C59.7,354.7,59.7,304.5,29,273.8z M-50.1,352.9c-3.2-3.2-6.7-5.9-10.2-8.4L-87.9,372c-0.4,0.4-0.5,1-0.8,1.4
		c3.8,1.9,7.5,4.3,10.6,7.4c7.4,7.4,11.5,17.3,11.5,27.9c0,3.6-0.6,7.1-1.5,10.5c-1.8,6.5-5,12.6-9.9,17.5l-20.6,20.6l-33.6,33.6
		c-7.4,7.4-17.3,11.5-27.9,11.5c-10.6,0-20.5-4.1-27.9-11.5s-11.5-17.3-11.5-27.9c0-10.6,4.1-20.5,11.5-27.9l12-12l-3.9-14.9
		c-2.9-11.1-3.8-22.6-3.1-34l-33,33c-30.7,30.7-30.7,80.9,0,111.6s80.9,30.7,111.6,0l54.2-54.2c4.8-4.8,8.5-10.1,11.8-15.6
		c10.9-18.4,13.6-40.1,8.3-60.3C-33.4,375.5-39.9,363.1-50.1,352.9z"/>
</g>
<g class="st0">
	<path class="st3" d="M-63.4,305.9c-14.4-35.9-43.8-47.5-43.8-47.5c-47.2-17.2-79.8,0-79.8,0c-54.4,23.6-51,81.9-51,81.9
		c5.1,29.9,18.5,44,18.5,44c6.2,6.7,22.3,40.4,22.3,40.4c5.8,11.3,6.2,35.5,6.2,35.5h90.4c-0.7-21.5,13.7-52.4,13.7-52.4
		c9.6-13.7,25.3-46.1,25.3-46.1C-53.8,331.6-63.4,305.9-63.4,305.9z M-103.8,362.2h-33.1v34h-18.7v-34h-33.1v-19.3h33.1v-34h18.7v34
		h33.1L-103.8,362.2L-103.8,362.2z"/>
	<path class="st3" d="M-107.4,468.3h-77.2c-4.3,0-7.8,3.5-7.8,7.8v0.2c0,4.3,3.5,7.8,7.8,7.8h77.2c4.3,0,7.8-3.5,7.8-7.8v-0.2
		C-99.6,471.9-103.2,468.3-107.4,468.3z"/>
	<path class="st3" d="M-107.4,490.9h-77.2c-4.3,0-7.8,3.5-7.8,7.8v0.2c0,4.3,3.5,7.8,7.8,7.8h77.2c4.3,0,7.8-3.5,7.8-7.8v-0.2
		C-99.6,494.4-103.2,490.9-107.4,490.9z"/>
	<path class="st3" d="M-145.3,541.1c35.8-1.1,41.9-26.4,41.9-26.4h-83.9C-179.7,541.1-145.3,541.1-145.3,541.1z"/>
</g>
<path class="st0" d="M-148.3,248.8c-80.6,0-145.9,65.3-145.9,145.9s65.3,145.9,145.9,145.9S-2.4,475.3-2.4,394.7
	C-2.4,314.1-67.7,248.8-148.3,248.8 M-233,359.1l56.8-37.1c10.3,15.7,5.8,36.7-9.8,47C-201.7,379.2-222.7,374.8-233,359.1
	 M-73.4,461.8c-2.8,3-6.5,4.5-10.3,4.5c-3.4,0-6.8-1.2-9.4-3.7c-16.6-15.2-35.6-23.2-55.1-23.2c-19.4,0-38.5,8-55.1,23.2
	c-5.7,5.2-14.5,4.8-19.8-0.9c-5.2-5.7-4.8-14.5,0.9-19.8c21.8-20,47.4-30.6,74-30.6s52.2,10.6,74,30.6
	C-68.6,447.3-68.2,456.1-73.4,461.8 M-110.5,369c-15.7-10.3-20.1-31.3-9.8-47l56.8,37.1C-73.8,374.8-94.8,379.2-110.5,369"/>
<path class="st0" d="M-148.7,248.8c-80.8,0-146.4,65.5-146.4,146.4s65.5,146.4,146.4,146.4c80.8,0,146.4-65.5,146.4-146.4
	S-67.9,248.8-148.7,248.8 M-100.4,327.7c15.4,0,28,12.5,28,28c0,15.4-12.5,28-28,28c-15.4,0-28-12.5-28-28
	C-128.3,340.3-115.8,327.7-100.4,327.7 M-199.8,327.7c15.4,0,28,12.5,28,28c0,15.4-12.5,28-28,28c-15.4,0-28-12.5-28-28
	C-227.8,340.3-215.3,327.7-199.8,327.7 M-73.5,460.9H-224c-7.8,0-14-7-14-14.8s6.3-14.8,14-14.8h150.6c7.8,0,14,7,14,14.8
	S-65.7,460.9-73.5,460.9"/>
<path class="st7" d="M-147.9,247.8c-81.4,0-147.4,66-147.4,147.4s66,147.4,147.4,147.4s147.4-66,147.4-147.4
	C-0.6,313.7-66.6,247.8-147.9,247.8 M-80.8,333.9c15.9,10.4,20.3,31.6,9.9,47.5l-57.4-37.5C-117.9,327.9-96.7,323.5-80.8,333.9
	 M-215.1,333.9c15.9-10.4,37.1-5.9,47.5,9.9l-57.4,37.5C-235.4,365.5-230.9,344.2-215.1,333.9 M-147.9,491.7
	c-38.5,0-72.8-24.9-94.7-65.4h189.4C-75.1,466.8-109.4,491.7-147.9,491.7"/>
<g>
	<path class="st8" d="M179.7,7c-38.1,0-54.1,17.1-54.1,17.1v38.5c36.6,1.4,50.5,17,51.1,17.7c1,1.2,1.9,2.7,1.9,4.2v154
		c0.4,0,0.7,0,1.1,0c37,0,51.9-22.3,51.9-22.3V22.5C231.6,22.5,217.6,7,179.7,7z M220.4,33.8c0,0-0.1,0.1-0.2,0.1
		c-0.3,0.2-0.6,0.5-0.9,0.8c-0.1,0.1-0.3,0.3-0.5,0.4c-0.5,0.4-1,0.8-1.6,1.3c-6.3,4.8-19.2,12.3-39,12.3c-7.4,0-16.7-1.8-24.5-4.4
		c-0.8-0.2-1.5-0.5-2.2-0.8c-2.6-0.9-5-1.9-7.1-3c-0.4-0.2-0.8-0.4-1.1-0.6c-0.6-0.3-1.2-0.7-1.7-1c-0.4-0.2-0.7-0.5-1.1-0.7
		c-0.4-0.3-0.7-0.5-1.1-0.8c-1.3-1-2.2-2-2.5-3c-0.1-0.1-0.1-0.3-0.1-0.4c-0.2-0.6-0.1-1.2,0.2-1.8c0,0,28.3,12,42.4,12
		c23.9,0,42.4-12,42.4-12S221.4,32.9,220.4,33.8z"/>
	<path class="st8" d="M120.2,69c-38.1,0-54.1,17.1-54.1,17.1V128c34.5,2,47.1,16.9,47.7,17.6c1,1.2,1.1,2.7,1.1,4.2v114.7
		c1.7,0.1,3.5,0.2,5.3,0.2c37,0,51.9-22.3,51.9-22.3V84.5C172.2,84.5,158.2,69,120.2,69z M152.8,100.2L152.8,100.2
		c-3.7,2.5-8.8,5.2-15.3,7.3c-0.1,0-0.1,0-0.2,0.1c-1.1,0.3-2.3,0.7-3.4,1c-1.9,0.5-3.8,0.9-5.9,1.2c-3.6,0.6-7.4,0.9-11.6,0.9l0,0
		l0,0c-17.4,0-44.6-9.8-41.3-16.3l0,0l0,0c0,0,28.3,12,42.4,12c23.9,0,42.4-12,42.4-12S157.4,97,152.8,100.2z"/>
	<g>
		<g>
			<path class="st9" d="M13,159.6c-3.3,6.5,23.9,16.3,41.3,16.3c29.4,0,43.5-16.3,43.5-16.3s-18.5,12-42.4,12
				C41.2,171.6,13,159.6,13,159.6z"/>
			<path class="st9" d="M63.4,225.3l-3.1-0.5v-14.3c3.4,0.2,7.4,1.3,10.1,3.9l7.2-7.1c-4.4-4.3-9.5-6.3-16.2-6.7v-7.3h-8.3v7.4
				c-10.7,1.1-17.1,8.1-17.1,17.5c0,4.9,1.4,8.6,4.2,11.4c2.5,2.5,6.4,4.3,11.3,4.9l2.6,0.3v14.8c-4.9-0.2-9.6-1.5-13-4.9l-7.4,7.4
				c5.3,5.4,11.5,7.5,19.3,7.7v8.9h8.3v-9.2c10.2-1.2,17.6-7.4,17.6-17.4c0-5.2-1.4-9.3-4.5-12.3C72.1,227.6,68.8,226.2,63.4,225.3z
				 M54.2,224.4c-2.3-0.3-4.1-1.1-5.4-2.3c-1.2-1.1-1.7-2.7-1.7-4.2c0-3.6,2.4-6.6,7.1-7.2L54.2,224.4L54.2,224.4z M60.2,249.6
				v-14.1c3,0.4,4.5,0.9,5.8,2.1c1.2,1.1,1.8,2.9,1.8,4.9C67.9,246.6,65.1,249,60.2,249.6z"/>
			<path class="st8" d="M47.1,217.9c0,1.5,0.5,3,1.7,4.2c1.3,1.2,3.1,2,5.4,2.3v-13.7C49.4,211.3,47.1,214.3,47.1,217.9z"/>
			<path class="st8" d="M57.6,134.3c-38.1,0-53.1,17.1-53.1,17.1v119.2c0,0,14.2,23.4,53.1,23.4c37,0,50.9-22.3,50.9-22.3V149.8
				C108.6,149.8,95.8,134.3,57.6,134.3z M61.4,259.6v9.2h-8.3v-8.9c-7.9-0.2-14-2.3-19.3-7.7l7.4-7.4c3.4,3.4,8.1,4.8,13,4.9v-14.8
				l-2.6-0.3c-4.9-0.7-8.9-2.5-11.3-4.9c-2.8-2.8-4.2-6.5-4.2-11.4c0-9.4,6.4-16.4,17.1-17.5v-7.4h8.3v7.3
				c6.6,0.4,11.7,2.5,16.2,6.7l-7.2,7.1c-2.7-2.6-6.7-3.7-10.1-3.9v14.3l3.1,0.5c5.3,0.8,8.7,2.3,11.1,4.6c3.1,3,4.5,7.1,4.5,12.3
				C79.1,252.2,71.6,258.4,61.4,259.6z M54.2,175.9c-17.4,0-44.6-9.8-41.3-16.3c0,0,28.3,12,42.4,12c23.9,0,42.4-12,42.4-12
				S83.6,175.9,54.2,175.9z"/>
			<path class="st8" d="M60.2,235.5v14.1c4.9-0.6,7.6-3,7.6-7.1c0-2-0.6-3.8-1.8-4.9C64.8,236.4,63.4,235.9,60.2,235.5z"/>
		</g>
	</g>
</g>
</svg>
