<?xml version="1.0" encoding="utf-8"?>
<!-- Generator: Adobe Illustrator 21.0.2, SVG Export Plug-In . SVG Version: 6.00 Build 0)  -->
<svg version="1.1" id="Layer_1" xmlns="http://www.w3.org/2000/svg" xmlns:xlink="http://www.w3.org/1999/xlink" x="0px" y="0px"
	 viewBox="0 0 27 27.3" style="enable-background:new 0 0 27 27.3;" xml:space="preserve">
<style type="text/css">
	.st0{fill:#8FC542;}
</style>
<path class="st0" d="M13.5,0.4C6.2,0.4,0.4,6.3,0.4,13.6s5.9,13.1,13.1,13.1c7.3,0,13.1-5.9,13.1-13.1C26.6,6.3,20.7,0.4,13.5,0.4z
	 M20.9,14.3L20.9,14.3l-6,6c-0.5,0.5-1.2,0.5-1.7,0c-0.2-0.2-0.3-0.5-0.3-0.8s0.1-0.6,0.3-0.8l4-4H6.9c-0.7,0-1.2-0.5-1.2-1.2
	s0.5-1.2,1.2-1.2h10.2l-4-4c-0.2-0.2-0.3-0.5-0.3-0.8s0.1-0.6,0.3-0.8c0.5-0.5,1.2-0.5,1.7,0l6,6C21.3,13.1,21.3,13.8,20.9,14.3z"/>
</svg>
