<?xml version="1.0" encoding="utf-8"?>
<!-- Generator: Adobe Illustrator 21.0.2, SVG Export Plug-In . SVG Version: 6.00 Build 0)  -->
<svg version="1.1" id="Layer_1" xmlns="http://www.w3.org/2000/svg" xmlns:xlink="http://www.w3.org/1999/xlink" x="0px" y="0px"
	 viewBox="0 0 300 300" style="enable-background:new 0 0 300 300;" xml:space="preserve">
<style type="text/css">
	.st0{display:none;}
	.st1{display:inline;fill:#1E6988;}
	.st2{display:none;fill:#1E6988;}
	.st3{display:inline;}
	.st4{display:inline;fill:none;}
	.st5{display:inline;fill:#FFFFFF;}
	.st6{fill:#FFFFFF;}
	.st7{display:none;fill:#57BA6A;}
	.st8{fill:none;}
	.st9{display:none;fill:#AA2D29;}
	.st10{fill:#9DC44D;}
</style>
<path class="st0" d="M386.9,145.4c0-23.8-12.1-45.5-31.9-61.8h0.1c0,0,4.8-11.5,3.9-29.8c-0.1-2.3-22.5,17.3-22.5,17.3l0.1,0.1
	c-20.1-10.9-44.8-17.4-71.5-17.4c-59.6,0-109.1,31.9-119.9,74.3v-0.3c-6.5,2.4-36.6-13.9-37.1-38.7c0,51.4,35,52.3,35,52.3
	s-0.1,2.6-0.1,4c0,27,15.6,51.3,40.3,68.1l0,0l-12.8,48.8h51l7.3-29.3l0,0c11.4,2.7,23.6,4.1,36.1,4.1c11.2,0,22.1-1.2,32.4-3.3
	h-0.1v28.5h51l-11.8-42.7c16.1-8.8,29.2-20.4,38-34l16.5,8.9l16.5-49L386.9,145.4L386.9,145.4z M293.7,181.4
	c-1.4,3.1-3.5,5.9-6.4,8.1c-2.8,2.3-6.3,4.1-10.4,5.3c-2.3,0.7-4.8,1.2-7.5,1.5v10.6h-14.8V196c-1.7-0.3-3.4-0.6-5.1-1
	c-4.2-1.1-7.8-2.8-11-5.1s-5.7-5.3-7.6-8.9c-1.9-3.6-2.8-7.9-2.7-12.8h17.1c0,2.7,0.5,5,1.4,6.9c1,1.9,2.3,3.4,3.9,4.5
	c1.6,1.2,3.5,2,5.7,2.6c2.2,0.5,4.4,0.8,6.7,0.8c1.6,0,3.3-0.1,5-0.4c1.8-0.3,3.5-0.8,5.1-1.5s2.9-1.8,3.9-3.1s1.6-3,1.6-5
	c0-2.2-0.7-3.9-2.1-5.3s-3.2-2.5-5.4-3.4c-2.2-0.9-4.8-1.7-7.6-2.4c-2.9-0.7-5.7-1.4-8.7-2.2c-3-0.7-5.9-1.7-8.7-2.8
	c-2.9-1.1-5.4-2.5-7.7-4.2c-2.2-1.7-4.1-3.9-5.4-6.5c-1.4-2.6-2.1-5.7-2.1-9.4c0-4.1,0.9-7.7,2.7-10.7c1.8-3,4.1-5.6,6.9-7.6
	c2.9-2,6.1-3.5,9.7-4.5c2.1-0.5,4.1-0.9,6.2-1.1v-9.8h14.7V114c0.6,0.1,1.3,0.2,1.9,0.3c3.8,0.9,7.3,2.5,10.3,4.5
	c3,2.1,5.4,4.8,7.1,8.1c1.8,3.3,2.6,7.2,2.6,11.9h-16.9c-0.1-2.4-0.7-4.4-1.5-6c-0.9-1.6-2-2.8-3.4-3.7c-1.4-0.9-3-1.5-4.9-1.9
	c-1.9-0.4-3.8-0.6-6-0.6c-1.4,0-2.8,0.2-4.3,0.5c-1.4,0.3-2.7,0.8-3.9,1.6c-1.1,0.7-2.1,1.7-2.9,2.8s-1.1,2.5-1.1,4.3
	c0,1.6,0.3,2.8,0.9,3.8s1.8,1.9,3.5,2.7c1.8,0.8,4.2,1.6,7.3,2.5c3.1,0.8,7.2,1.9,12.2,3.1c1.5,0.3,3.6,0.9,6.2,1.6
	c2.7,0.8,5.3,2.1,7.9,3.8c2.6,1.7,4.9,4.1,6.8,6.9c1.9,2.9,2.9,6.6,2.9,11.1C295.9,174.9,295.1,178.3,293.7,181.4 M299.4,88.2
	c-64.9-13.8-68.4,4-79.8,5.6c0,0-11.1-2.8,0.6-11.9c22.7-17.1,76.9-10,84.9-0.8C307.5,88,299.4,88.2,299.4,88.2 M352.2,143.5
	c-5.3,0-9.6-7-9.6-15.6s4.3-15.6,9.6-15.6c5.3,0,9.7,7,9.7,15.6S357.5,143.5,352.2,143.5"/>
<path class="st0" d="M190.8,123.7c0-15.2,5.2-29.2,13.7-40.4c-4.1-1.2-8.4-2.1-12.9-2.1c-25.2,0.1-45.5,20.4-45.5,45.6
	c0,17.9,10.5,33.3,25.5,40.7h-0.3c-22.5,0-61.2,18.3-61.2,40.8v20.4h42.3v-13.8c0-25.7,24.6-44.7,49.7-54.3
	C194.9,150,190.8,137.3,190.8,123.7 M345,167.5h-0.3c15-7.5,25.5-22.8,25.5-40.7c0-25.2-20.4-45.5-45.6-45.5c-4.9,0-9.5,1-13.9,2.4
	c8.4,11.2,13.5,25,13.5,40c0,13.5-4.1,26-11,36.5c25.4,9.5,50.7,28.7,50.7,54.7v13.8h42.3v-20.4C406.2,185.8,367.5,167.5,345,167.5
	 M280.3,170.4h-6c19.2-6.9,32.9-25.2,32.9-46.7c0-27.5-22.3-49.7-49.7-49.7c-27.5,0-49.8,22.2-49.8,49.7c0,21.5,13.7,39.8,32.9,46.7
	h-4.8c-24.5,0-66.6,19.9-66.6,44.5v22.3h177.7v-22.3C347,190.4,304.8,170.4,280.3,170.4"/>
<g class="st0">
	<path class="st1" d="M305.5,192.7c0.6-22.1,22.5-47.6,38.2-58.1c-17.7-21.3-48.8-36.2-84.8-38.4c-17.5-19.1-38.8-43.9-39.7-45.8
		c7.4,16.4,4.6,34.9,0.4,48.5c-30.2,6.2-55,21.4-68.6,41.4l-30.3-36.8c0,0,15.2,83.4-7.6,121.3c-13.4,22.4,10.2-1.6,31.8-24.9
		c14.2,32,55.7,55.2,104.6,55.2c32.5,0,61.6-10.3,81.7-26.5C318,218.6,305.2,204.1,305.5,192.7z M287.6,238.3
		c-8.4,4.9-17.9,8-39.3,8c-20.1,0-26.5-3.1-32.8-6.1l-2.2-1.1c-1.9-0.9-2.7-3.1-1.9-5c0.9-1.9,3.2-2.7,5-1.9l2.3,1.1
		c5.7,2.8,11.1,5.4,29.5,5.4c21.8,0,29.5-3.4,35.5-6.9c1.8-1.1,4.1-0.4,5.2,1.4C290,234.9,289.4,237.2,287.6,238.3z M287.3,158
		c-6,0-10.9-8.2-10.9-18.3s4.9-18.2,10.9-18.2s10.9,8.2,10.9,18.2S293.3,158,287.3,158z"/>
	<path class="st1" d="M376.3,166.3c-5.2-5.7-11.7-13.2-11.9-13.8c2.2,5,1.3,10.5,0.1,14.6c-9,1.9-16.3,6.4-20.4,12.3l-9.1-11.1
		c0,0,4.5,24.9-2.3,36.2c-4,6.7,3.1-0.5,9.6-7.5c4.2,9.6,16.5,16.6,31.1,16.6c18.1,0,32.8-10.6,32.8-23.7
		C406.2,177.5,393,167.4,376.3,166.3z M392.6,189c-1.8,0-3.2-2.4-3.2-5.4s1.4-5.4,3.2-5.4c1.8,0,3.3,2.4,3.3,5.4
		S394.4,189,392.6,189z"/>
</g>
<g class="st0">
	<path class="st1" d="M372.2,92.4c-0.7-10.4-3-16.6-7.2-26.1c-14.6-33.2-64.9-55.1-92.9-28c-22.4,21.7-18.2,50.3-27.5,77.1
		c-23,67-75.9,68.6-136.6,47.7c32.9,41.9,82.8,88,136.6,88.1v29.2h2.5l-2.4,0.4l3.7,22.7l4.8-0.9l-3-18.5l22.1,6.9l1.3-5.1l-18-5.6
		l15.6-5.3l-1.6-5.1l-20.2,6.9v-25.5c1.5-0.1,3-0.2,4.5-0.3c8-0.8,15.9-2.9,23.8-6.2v21h2.5l-2.4,0.4l3.7,22.7l4.9-0.9l-3-18.5
		l22.1,6.8l1.4-5.2l-18-5.5l15.6-5.3l-1.5-5.1l-20.1,6.9v-19.5c42.1-19.9,80.4-67.3,88.2-117.4l37-14.1L372.2,92.4z M310.6,98.3
		c-9.4,0-17.1-8.3-17.1-18.5s7.7-18.5,17.1-18.5s17.1,8.3,17.1,18.5C327.7,90,320,98.3,310.6,98.3z"/>
</g>
<path class="st2" d="M382.4,308.9c0,16.3-13.2,29.5-29.5,29.5H160.4c-16.3,0-29.5-13.2-29.5-29.5v-241
	c-0.1-16.3,13.2-29.5,29.5-29.5h192.5c16.3,0,29.5,13.2,29.5,29.5V308.9z M198.9,130.7l-0.6-63l-11.1,0.1l0.4,38.6L164.8,68
	l-9.9,0.1l0.6,63l11.1-0.1l-0.4-38.7l22.8,38.4H198.9z M248.8,130.2l-0.1-11l-26.3,0.2l-0.1-15.3l22.4-0.2l-0.1-11l-22.4,0.2
	l-0.1-14.8l26.3-0.2l-0.1-11l-37.4,0.3l0.6,63L248.8,130.2z M321.9,66.6l-11.5,0.1l-8.5,39.8l-10.7-39.6l-8.3,0.1l-10,39.8
	l-9.1-39.6l-11.6,0.1l15.7,62.9l9.2-0.1l10.1-38.3l10.8,38.1l9.2-0.1L321.9,66.6z M365.3,110.6c-0.1-5.6-1.4-10.2-4.5-13.3
	c-2.4-2.4-5.7-4-10.9-4.8l-6.7-1c-2.3-0.3-4.2-1.3-5.3-2.4c-1.2-1.2-1.7-2.9-1.7-4.5c0-4.3,2.8-8,8.7-8c3.7,0,8.1,0.5,11.7,4.2
	l6.9-7.8c-4.9-5.2-10.6-7.2-18.4-7.2c-12.3,0.1-19.7,8.1-19.6,19.3c0.1,5.3,1.4,9.4,4.2,12.3c2.6,2.7,6.2,4.4,11,5.1l6.9,1
	c2.6,0.4,3.9,1,5,2.2c1.2,1.2,1.8,3.1,1.8,5.3c0.1,5-3.4,7.8-10,7.9c-5.3,0.1-10.1-1.2-13.8-5.2l-7.1,8c5.6,6.2,12.2,8.2,20.8,8.1
	C356.3,129.8,365.4,122.8,365.3,110.6z M269.2,223.2h93.5v-68.1h-93.5V223.2z M244.8,160.3h-92.3v7.4h92.2L244.8,160.3L244.8,160.3z
	 M244.8,188.5h-92.3v7.4h92.2L244.8,188.5L244.8,188.5z M244.8,216.6h-92.3v7.4h92.2L244.8,216.6L244.8,216.6z M362.7,244.8H152.5
	v7.4h210.2V244.8L362.7,244.8z M362.7,273H152.5v7.4h210.2V273L362.7,273z M362.7,301.1H152.5v7.4h210.2V301.1L362.7,301.1z"/>
<path class="st2" d="M242,336.3c-6.8,0-13.2-2.7-18.1-7.5L115.1,219.9c-10-10-10-26.2,0-36.1L245.6,53.2
	c7.8-7.8,22.1-13.7,33.1-13.7h100.1c14.1,0,25.6,11.5,25.6,25.6v100c0,11.1-5.9,25.4-13.7,33.2L260.1,328.8
	C255.2,333.6,248.8,336.3,242,336.3z M366.7,105.4c0-13.7-11.1-24.8-24.8-24.8c-13.7,0-24.8,11.1-24.8,24.8s11.1,24.8,24.8,24.8
	C355.6,130.2,366.7,119.1,366.7,105.4"/>
<path class="st0" d="M385.3,326.5V128.2H256.5V78.7H127.7v247.7h-19.8v9.9h297.3v-9.9L385.3,326.5L385.3,326.5z M325.9,148.1h39.6
	v39.6h-39.6V148.1L325.9,148.1z M325.9,197.6h39.6v39.6h-39.6V197.6L325.9,197.6z M325.9,247.2h39.6v39.6h-39.6V247.2L325.9,247.2z
	 M276.3,148.1h39.6v39.6h-39.6V148.1L276.3,148.1z M276.3,197.6h39.6v39.6h-39.6V197.6L276.3,197.6z M276.3,247.2h39.6v39.6h-39.6
	V247.2L276.3,247.2z M197.1,98.5h39.6v39.6h-39.6V98.5z M197.1,148.1h39.6v39.6h-39.6V148.1z M197.1,197.6h39.6v39.6h-39.6V197.6z
	 M197.1,247.2h39.6v39.6h-39.6V247.2z M147.5,98.5h39.6v39.6h-39.6V98.5z M147.5,148.1h39.6v39.6h-39.6V148.1z M147.5,197.6h39.6
	v39.6h-39.6V197.6z M147.5,247.2h39.6v39.6h-39.6V247.2z M177.2,296.7h29.7v29.7h-29.7V296.7z M306.1,296.7h29.7v29.7h-29.7V296.7z"
	/>
<path class="st0" d="M395,173.8c-15.8-57.4-48.8-101.7-71.3-92.1c-1,0.4-3.3,1.7-6.5,3.7l-0.4,0.2c-15.6,14.8-17.9,59.9-4.3,109.5
	c0.9,3.4-1.1,7-4.5,7.9s-7-1.1-7.9-4.5l0,0c-10.9-39.4-13.9-74.1-7.4-97.9c-49.9,32-143.8,94.1-168.7,110.5c-2-0.8-3.9-1-5.7-0.5
	c-9,2.5-11.7,20.9-6.1,41.2c5.6,20.3,17.3,34.7,26.3,32.2c1.7-0.5,3.2-1.5,4.4-3.1c0.5,0.1,20.4,0.8,48.5,1.9
	c0.5,27.8,22.6,50.6,50.7,51.6c28,1,51.6-20.1,54.2-47.7c45.7,1.7,84.1,3.1,84.6,2.9C404.6,283.1,410.8,231.2,395,173.8z
	 M242.8,316.8c-18.4-0.7-32.9-15.4-33.8-33.5c21.6,0.9,46.2,1.7,69.8,2.6C276.7,303.9,261.1,317.5,242.8,316.8z M374.2,263.7
	c-14.5,3.6-34.7-27.7-45.1-69.8c-10.5-42.1-7.2-79.2,7.2-82.8c14.5-3.6,34.7,27.7,45.1,69.8C391.9,223.1,388.6,260.2,374.2,263.7z"
	/>
<path class="st0" d="M367.9,81h-178c-20.6,0-37.3,16.7-37.3,37.3v179.3c0,20.6,16.7,37.3,37.3,37.3h178c20.6,0,37.3-16.7,37.3-37.3
	V118.3C405.2,97.7,388.5,81,367.9,81z M218.2,307.3c-11.7,0-21.2-9.4-21.3-21.1c0-11.7,9.4-21.2,21.1-21.2
	c11.7,0,21.2,9.4,21.3,21.1C239.4,297.8,229.9,307.3,218.2,307.3z M269.7,307.2c-0.1-40.1-32.8-72.6-72.9-72.4l-0.1-31.8
	c57.6-0.2,104.6,46.5,104.8,104.1L269.7,307.2z M329.5,307c-0.2-73-59.8-132.3-132.9-132l-0.1-31.8c90.5-0.3,164.4,73.1,164.7,163.7
	L329.5,307z"/>
<g class="st0">
	<rect x="143.9" y="214.8" class="st3" width="38.7" height="142"/>
	<rect x="327.8" y="201.9" class="st3" width="38.7" height="154.9"/>
	<rect x="266.4" y="59.7" class="st3" width="38.7" height="297"/>
	<rect x="205.1" y="182.4" class="st3" width="38.7" height="174.4"/>
	<rect x="389.1" y="124.4" class="st3" width="38.7" height="232.3"/>
</g>
<g class="st0">
	<path class="st3" d="M311.1,227.5h-10.4c33.2-11.9,56.9-43.6,56.9-80.9c0-47.5-38.5-86-86-86c-47.6,0-86.2,38.5-86.2,86
		c0,37.3,23.8,69,57,80.9h-8.3c-42.5,0-115.4,34.5-115.4,77.1v38.6h307.7v-38.6C426.5,262,353.5,227.5,311.1,227.5z"/>
</g>
<path class="st0" d="M344.2,94.6c-0.2-26.4-77.3-29.2-110.4-29.2h-1.3c-20.5,0-89.1,1.5-106.5,19.1c-3.9,3.9-4.7,8-4.7,10.7
	c0,3.9,1.7,7.3,4.6,10.3l91.3,141.8l7.6,92.3h15.1l7.6-92.3l90.7-140.9c0.3-0.3,0.7-0.6,1-0.9C343.4,101.4,344.2,97.3,344.2,94.6z
	 M233.9,81.2c57.4,0,88.3,8.4,94,13.6c-6,6.1-40.1,15.8-94.9,15.9l-1-0.1v0.1c-54.4,0-88.3-9.5-94.3-15.6
	C143.5,89.9,174.7,81.3,233.9,81.2z"/>
<polygon class="st0" points="417.5,162 343.5,232.7 359.7,333.8 269.6,285.2 178.5,331.9 196.8,231.2 124.2,158.9 225.7,145.2 
	272,53.9 316.3,146.2 "/>
<path class="st0" d="M271.2,107.8l23.4,48.7l5.4,11.3l12.4,1.9l53.4,8.3l-39.1,37.3l-9.1,8.7l2,12.4l8.6,53.4l-47.6-25.6l-11-6
	l-11.2,5.7l-48.1,24.7l9.7-53.2l2.2-12.3l-8.9-8.9l-38.2-38.1l53.6-7.2l12.4-1.7l5.7-11.2L271.2,107.8 M271.7,53.9l-46.2,91.3
	L124,158.9l72.6,72.2l-18.4,100.8l91.1-46.7l90.1,48.6l-16.2-101.1l74-70.7l-101.1-15.8L271.7,53.9L271.7,53.9z"/>
<path class="st0" d="M399.3,220.3v-55.1h-28.5c-2.9-11.7-7.5-22.7-13.7-32.6l19.6-19.6l-35.5-35.4l-19.3,19.3
	c-10-6.4-21.1-11.2-32.8-14.2V54.9H234v27.8c-11.8,3-22.9,7.8-32.9,14.2l-19.4-19.4L146.3,113l19.5,19.5c-6.2,10-10.9,21-13.8,32.7
	h-28.4v55.1h28.8c3,11.5,7.8,22.3,14,32l-20.2,20.2l35.5,35.4l20.4-20.3c9.7,6,20.4,10.6,31.8,13.5v29.5H289V301
	c11.4-2.9,22.1-7.5,31.8-13.5l20.4,20.4l35.4-35.4l-20.2-20.2c6.2-9.7,10.9-20.5,13.9-31.9h29L399.3,220.3L399.3,220.3z
	 M261.4,235.7c-24.2,0-43.8-19.7-43.8-43.8c0-24.2,19.7-43.8,43.8-43.8c24.2,0,43.8,19.7,43.8,43.8S285.6,235.7,261.4,235.7z"/>
<g class="st0">
	<polygon class="st3" points="176.8,319.9 138.3,284 159.7,258.8 198.2,294.8 	"/>
	<path class="st3" d="M125.1,332.4l24.7-114.1L311.9,52.9l85.1,91.3L234.9,309.6L125.1,332.4z M171.9,231.3L157,299.9l66-13.7
		l139.7-142.5l-51.2-54.9L171.9,231.3z"/>
	<polygon class="st3" points="321.3,192.8 254.3,122.7 271.5,104.8 338.5,174.9 	"/>
	<polygon class="st3" points="232.4,285.8 165.4,215.7 182.6,197.8 249.6,267.9 	"/>
	<polygon class="st3" points="220.1,241.9 215.4,237 305.3,142.9 310,147.8 	"/>
</g>
<g class="st0">
	<path class="st3" d="M261.2,58.6c-75.5,0-136.6,61.1-136.6,136.6s61.2,136.6,136.6,136.6s136.6-61.1,136.6-136.6
		S336.6,58.6,261.2,58.6z M333.5,243c5,5,5,13.1,0,18.1c-2.5,2.5-5.8,3.7-9,3.7c-3.2,0-6.5-1.2-9-3.7l-51.1-51l-51.1,51
		c-2.5,2.5-5.8,3.7-9,3.7c-3.3,0-6.5-1.2-9-3.7c-5-5-5-13.1,0-18.1l51-51l-51-51c-5-5-5-13.1,0-18.1s13.1-5,18.1,0l51.1,51l51.1-51
		c5-5,13.1-5,18.1,0s5,13.1,0,18.1l-51,51L333.5,243z"/>
</g>
<g class="st0">
	
		<image style="display:inline;overflow:visible;enable-background:new    ;" width="935" height="780" xlink:href="546790BA78DC377C.png"  transform="matrix(0.2369 0 0 0.2366 176.6022 59.0652)">
	</image>
	<path class="st3" d="M267.4,318.8l-86.6-237c-1.7-4.7-6.9-7.2-11.7-5.4c-4.7,1.7-7.2,7-5.4,11.7l86.6,237c1.3,3.7,4.8,6,8.6,6
		c1,0,2.1-0.2,3.1-0.6C266.7,328.8,269.1,323.5,267.4,318.8z"/>
</g>
<g class="st0">
	<polygon class="st4" points="304.2,235.9 247,112.2 247,112.2 	"/>
	<path class="st4" d="M222.6,64.9l-3.8-13.7L222.6,64.9z"/>
	<g class="st3">
		<polygon points="218.8,51.2 222.6,64.9 273.1,247.3 294.3,258.5 295.3,258.1 304.2,235.9 247,112.2 		"/>
		<path d="M133.1,200.6c0,21.7,4.8,42.2,13.2,60.8l48.2-21.8c-5.4-11.9-8.5-25.1-8.5-39c0-34,18.1-63.7,45.1-80.4l-14.6-52.4
			C167.2,91.7,133.1,142.1,133.1,200.6z"/>
		<path d="M280.8,53c-17.5,0-34.1,3.2-49.7,8.8l22.3,48.3c8.7-2.6,17.8-4.2,27.4-4.2c52.3,0,94.8,42.4,94.8,94.8
			c0,13.9-3,27.1-8.4,39l48.2,21.8c8.4-18.6,13.2-39.1,13.2-60.8C428.5,119.1,362.3,53,280.8,53z"/>
	</g>
	<path class="st5" d="M218.8,51.2l5.9,12.8c2-0.8,4.2-1.5,6.3-2.2l-6.1-13.4L212.4,53l4.1,14.8c2-1,4-2,6.1-2.9L218.8,51.2z"/>
</g>
<g class="st0">
	<path class="st3" d="M302.8,104.5c10.9,0,19.7-8.8,19.7-19.7s-8.8-19.7-19.7-19.7c-10.9,0-19.7,8.8-19.7,19.7
		S291.9,104.5,302.8,104.5z M169.1,104.5c10.9,0,19.7-8.8,19.7-19.7s-8.8-19.7-19.7-19.7s-19.7,8.8-19.7,19.7
		S158.2,104.5,169.1,104.5z M181.5,112H150c-8.7,0-15.7,7.1-15.7,15.3V175H150v70.7h39.3v-55h-7.9L181.5,112L181.5,112z M323.1,112
		h-31.5v78.7h-7.9v55h39.4v-70.8h15.7v-47.6C338.8,119.1,331.7,112,323.1,112z M260.2,104.1H213c-8.6,0-15.7,7.8-15.7,16.4v62.2H213
		v78.7h47.2v-78.7h15.7v-62.1C275.9,111.9,268.8,104.1,260.2,104.1z M235.9,96.3c13,0,23.6-10.6,23.6-23.6
		c0-13.1-10.6-23.6-23.6-23.6s-23.6,10.6-23.6,23.6C212.4,85.7,222.9,96.3,235.9,96.3z"/>
</g>
<g class="st0">
	<path class="st3" d="M235.8,252.6c-56.6,0-102.6-46-102.6-102.6s46-102.6,102.6-102.6s102.6,46,102.6,102.6
		S292.4,252.6,235.8,252.6z M235.8,72c-43,0-78,35-78,78s35,78,78,78s78-35,78-78S278.9,72,235.8,72z"/>
	<path class="st3" d="M235.8,204.8c-30.2,0-54.8-24.6-54.8-54.8c0-30.2,24.6-54.8,54.8-54.8s54.8,24.6,54.8,54.8
		S266.1,204.8,235.8,204.8z M235.8,106.5c-24,0-43.5,19.5-43.5,43.5s19.5,43.5,43.5,43.5s43.5-19.5,43.5-43.5
		S259.8,106.5,235.8,106.5z"/>
	<path class="st3" d="M235.8,170.2c-11.1,0-20.2-9.1-20.2-20.2s9.1-20.2,20.2-20.2S256,138.9,256,150
		C256.1,161.1,247,170.2,235.8,170.2z"/>
</g>
<path class="st0" d="M319.6,209.6c12.3-16.9,19.6-37.7,19.6-60.3c0-56.9-46.1-103-103-103s-103,46.1-103,103
	c0,22.3,7.2,42.9,19.2,59.8v0.7h0.5c18.7,25.7,49,42.6,83.2,42.6c34.3,0,64.5-16.8,83.3-42.6h0.1L319.6,209.6L319.6,209.6z
	 M236.2,238.2c-2.3,0-4.6-0.2-6.8-0.3c-6.5-8.6-12.3-18-17.3-28h45.8c-5,10.1-10.9,19.5-17.4,28.2
	C239.1,238,237.6,238.2,236.2,238.2z M205.4,194.2c-4.1-11.6-6.7-24-7.3-37.2h73.8c-0.6,13.1-3.2,25.5-7.3,37.2H205.4z M236.2,60.6
	c0.9,0,1.8,0.1,2.7,0.1c8.7,9.8,15.6,20.4,20.8,31.6h-49.5c5.2-11.2,12.1-21.7,20.7-31.5C232.7,60.7,234.4,60.6,236.2,60.6z
	 M265.1,105.7c3.8,11.4,6,23.5,6.7,36.4h-73.6c0.7-12.9,2.9-25,6.7-36.4H265.1z M324.6,142.1h-38.5c-0.8-12.7-3.3-24.9-7.3-36.4
	h34.7C319.6,116.6,323.6,128.9,324.6,142.1z M183.8,142.1h-36.1c1.1-13.2,5-25.5,11.2-36.4h32.3
	C187.2,117.2,184.7,129.4,183.8,142.1z M183.7,157c0.6,12.9,2.8,25.4,6.7,37.2h-30.8c-6.5-11.1-10.7-23.7-11.8-37.2H183.7z
	 M286.3,157h38.4c-1.1,13.5-5.3,26.1-11.8,37.2h-33.2C283.4,182.4,285.7,169.9,286.3,157z M304.2,92.3h-30.9
	c-5.1-10.8-11.5-20.9-19.1-29.9C274.1,66.5,291.6,77.3,304.2,92.3z M215.1,63.2c-7.3,8.8-13.4,18.6-18.4,29.1h-28.5
	C180.1,78.1,196.5,67.7,215.1,63.2z M171.2,209.8h25.5c4.2,8.9,9.4,17.3,15.3,25C196.2,230.3,182.2,221.5,171.2,209.8z M257.3,235.5
	c6.2-7.9,11.5-16.6,15.9-25.7h27.9C289.5,222.3,274.4,231.4,257.3,235.5z"/>
<g class="st0">
	<g class="st3">
		<path class="st6" d="M229.7,249.6c3.3,0,6.6-1.3,9.2-3.8l96.3-96.3l-96.3-96.2c-5.1-5.1-13.3-5.1-18.3,0c-5.1,5.1-5.1,13.3,0,18.3
			l77.9,77.9l-77.9,77.9c-5.1,5.1-5.1,13.3,0,18.3C223.1,248.3,226.4,249.6,229.7,249.6z"/>
	</g>
	<g class="st3">
		<path d="M229.7,248.6c3.3,0,6.6-1.3,9.2-3.8l96.3-96.3l-96.3-96.3c-5.1-5.1-13.3-5.1-18.3,0c-5.1,5.1-5.1,13.3,0,18.3l77.9,77.9
			l-77.9,77.9c-5.1,5.1-5.1,13.3,0,18.3C223.1,247.3,226.4,248.6,229.7,248.6z"/>
	</g>
</g>
<path class="st0" d="M371.8,61.6l-68.3,66.6l-46-47.8l69.1-67.5c-11.8-5.6-24.8-9.1-38.8-9.1c-49.9,0-90.3,40.4-90.3,90.3
	c0,15,4,28.9,10.5,41.3L93,247.5l46,47.8L258.3,179c9.3,3.2,19.1,5.3,29.5,5.3c49.9,0.1,90.3-40.3,90.3-90.1
	C378.1,82.7,375.8,71.8,371.8,61.6z"/>
<g class="st0">
	<path class="st3" d="M358.1,27c-30.7-30.7-81-30.7-111.6,0l-54.2,54.2c-4.8,4.8-8.5,10.1-11.8,15.6c-10.9,18.4-13.6,40.1-8.4,60.3
		c3.4,13.1,9.9,25.5,20.1,35.7c3.2,3.2,6.6,5.9,10.2,8.4l27.5-27.5c0.4-0.3,0.5-1,0.8-1.4c-3.8-1.9-7.5-4.2-10.6-7.4
		c-7.4-7.4-11.5-17.3-11.5-27.9c0-3.6,0.6-7.1,1.5-10.5c1.8-6.5,5-12.6,9.9-17.5l54.2-54.2c7.4-7.4,17.3-11.5,27.9-11.5
		s20.5,4.1,27.9,11.5c7.4,7.4,11.5,17.3,11.5,27.9s-4.1,20.5-11.5,27.9l-12,12l3.9,14.9c2.9,11.1,3.8,22.6,3.1,33.9l33-33
		C388.8,107.9,388.8,57.7,358.1,27z M279,106.1c-3.2-3.2-6.7-5.9-10.2-8.4l-27.6,27.5c-0.4,0.4-0.5,1-0.8,1.4
		c3.8,1.9,7.5,4.3,10.6,7.4c7.4,7.4,11.5,17.3,11.5,27.9c0,3.6-0.6,7.1-1.5,10.5c-1.8,6.5-5,12.6-9.9,17.5l-20.6,20.6l-33.6,33.6
		c-7.4,7.4-17.3,11.5-27.9,11.5c-10.6,0-20.5-4.1-27.9-11.5s-11.5-17.3-11.5-27.9s4.1-20.5,11.5-27.9l12-12l-3.9-14.9
		c-2.9-11.1-3.8-22.6-3.1-34l-33,33c-30.7,30.7-30.7,80.9,0,111.6s80.9,30.7,111.6,0l54.2-54.2c4.8-4.8,8.5-10.1,11.8-15.6
		c10.9-18.4,13.6-40.1,8.3-60.3C295.7,128.7,289.2,116.3,279,106.1z"/>
</g>
<g class="st0">
	<path class="st3" d="M265.7,59.1c-14.4-35.9-43.8-47.5-43.8-47.5c-47.2-17.2-79.8,0-79.8,0c-54.4,23.6-51,81.9-51,81.9
		c5.1,29.9,18.5,44,18.5,44c6.2,6.7,22.3,40.4,22.3,40.4c5.8,11.3,6.2,35.5,6.2,35.5h90.4c-0.7-21.5,13.7-52.4,13.7-52.4
		c9.6-13.7,25.3-46.1,25.3-46.1C275.3,84.8,265.7,59.1,265.7,59.1z M225.3,115.4h-33.1v34h-18.7v-34h-33.1V96.1h33.1v-34h18.7v34
		h33.1L225.3,115.4L225.3,115.4z"/>
	<path class="st3" d="M221.7,221.5h-77.2c-4.3,0-7.8,3.5-7.8,7.8v0.2c0,4.3,3.5,7.8,7.8,7.8h77.2c4.3,0,7.8-3.5,7.8-7.8v-0.2
		C229.5,225.1,225.9,221.5,221.7,221.5z"/>
	<path class="st3" d="M221.7,244.1h-77.2c-4.3,0-7.8,3.5-7.8,7.8v0.2c0,4.3,3.5,7.8,7.8,7.8h77.2c4.3,0,7.8-3.5,7.8-7.8v-0.2
		C229.5,247.6,225.9,244.1,221.7,244.1z"/>
	<path class="st3" d="M183.8,294.3c35.8-1.1,41.9-26.4,41.9-26.4h-83.9C149.4,294.3,183.8,294.3,183.8,294.3z"/>
</g>
<path class="st0" d="M180.8,2C100.2,2,34.9,67.3,34.9,147.9s65.3,145.9,145.9,145.9s145.9-65.3,145.9-145.9
	C326.7,67.3,261.4,2,180.8,2 M96.1,112.3l56.8-37.1c10.3,15.7,5.8,36.7-9.8,47C127.4,132.4,106.4,128,96.1,112.3 M255.7,215
	c-2.8,3-6.5,4.5-10.3,4.5c-3.4,0-6.8-1.2-9.4-3.7c-16.6-15.2-35.6-23.2-55.1-23.2c-19.4,0-38.5,8-55.1,23.2
	c-5.7,5.2-14.5,4.8-19.8-0.9c-5.2-5.7-4.8-14.5,0.9-19.8c21.8-20,47.4-30.6,74-30.6s52.2,10.6,74,30.6
	C260.5,200.5,260.9,209.3,255.7,215 M218.6,122.2c-15.7-10.3-20.1-31.3-9.8-47l56.8,37.1C255.3,128,234.3,132.4,218.6,122.2"/>
<path class="st0" d="M180.4,2C99.6,2,34,67.5,34,148.4s65.5,146.4,146.4,146.4c80.8,0,146.4-65.5,146.4-146.4S261.2,2,180.4,2
	 M228.7,80.9c15.4,0,28,12.5,28,28c0,15.4-12.5,28-28,28c-15.4,0-28-12.5-28-28C200.8,93.5,213.3,80.9,228.7,80.9 M129.3,80.9
	c15.4,0,28,12.5,28,28c0,15.4-12.5,28-28,28c-15.4,0-28-12.5-28-28C101.3,93.5,113.8,80.9,129.3,80.9 M255.6,214.1H105.1
	c-7.8,0-14-7-14-14.8s6.3-14.8,14-14.8h150.6c7.8,0,14,7,14,14.8S263.4,214.1,255.6,214.1"/>
<path class="st7" d="M181.2,1C99.8,1,33.8,67,33.8,148.4s66,147.4,147.4,147.4s147.4-66,147.4-147.4C328.5,66.9,262.5,1,181.2,1
	 M248.3,87.1c15.9,10.4,20.3,31.6,9.9,47.5l-57.4-37.5C211.2,81.1,232.4,76.7,248.3,87.1 M114,87.1c15.9-10.4,37.1-5.9,47.5,9.9
	l-57.4,37.5C93.7,118.7,98.2,97.4,114,87.1 M181.2,244.9c-38.5,0-72.8-24.9-94.7-65.4h189.4C254,220,219.7,244.9,181.2,244.9"/>
<g class="st0">
	<path class="st3" d="M210.5,5.7c-38.1,0-54.1,17.1-54.1,17.1v38.5c36.6,1.4,50.5,17,51.1,17.7c1,1.2,1.9,2.7,1.9,4.2v154
		c0.4,0,0.7,0,1.1,0c37,0,51.9-22.3,51.9-22.3V21.2C262.4,21.2,248.5,5.7,210.5,5.7z M251.2,32.5c0,0-0.1,0.1-0.2,0.1
		c-0.3,0.2-0.6,0.5-0.9,0.8c-0.1,0.1-0.3,0.3-0.5,0.4c-0.5,0.4-1,0.8-1.6,1.3c-6.3,4.8-19.2,12.3-39,12.3c-7.4,0-16.7-1.8-24.5-4.4
		c-0.8-0.2-1.5-0.5-2.2-0.8c-2.6-0.9-5-1.9-7.1-3c-0.4-0.2-0.8-0.4-1.1-0.6c-0.6-0.3-1.2-0.7-1.7-1c-0.4-0.2-0.7-0.5-1.1-0.7
		c-0.4-0.3-0.7-0.5-1.1-0.8c-1.3-1-2.2-2-2.5-3c-0.1-0.1-0.1-0.3-0.1-0.4c-0.2-0.6-0.1-1.2,0.2-1.8c0,0,28.3,12,42.4,12
		c23.9,0,42.4-12,42.4-12S252.2,31.6,251.2,32.5z"/>
	<path class="st3" d="M151.1,67.7C113,67.7,97,84.8,97,84.8v41.9c34.5,2,47.1,16.9,47.7,17.6c1,1.2,1.1,2.7,1.1,4.2v114.7
		c1.7,0.1,3.5,0.2,5.3,0.2c37,0,51.9-22.3,51.9-22.3V83.2C203,83.2,189.1,67.7,151.1,67.7z M183.6,98.9L183.6,98.9
		c-3.7,2.5-8.8,5.2-15.3,7.3c-0.1,0-0.1,0-0.2,0.1c-1.1,0.3-2.3,0.7-3.4,1c-1.9,0.5-3.8,0.9-5.9,1.2c-3.6,0.6-7.4,0.9-11.6,0.9l0,0
		l0,0c-17.4,0-44.6-9.8-41.3-16.3l0,0l0,0c0,0,28.3,12,42.4,12c23.9,0,42.4-12,42.4-12S188.3,95.7,183.6,98.9z"/>
	<g class="st3">
		<g>
			<path class="st8" d="M43.8,158.3c-3.3,6.5,23.9,16.3,41.3,16.3c29.4,0,43.5-16.3,43.5-16.3s-18.5,12-42.4,12
				C72.1,170.3,43.8,158.3,43.8,158.3z"/>
			<path class="st8" d="M94.2,224l-3.1-0.5v-14.3c3.4,0.2,7.4,1.3,10.1,3.9l7.2-7.1c-4.4-4.3-9.5-6.3-16.2-6.7V192h-8.3v7.4
				c-10.7,1.1-17.1,8.1-17.1,17.5c0,4.9,1.4,8.6,4.2,11.4c2.5,2.5,6.4,4.3,11.3,4.9l2.6,0.3v14.8c-4.9-0.2-9.6-1.5-13-4.9l-7.4,7.4
				c5.3,5.4,11.5,7.5,19.3,7.7v8.9h8.3v-9.2c10.2-1.2,17.6-7.4,17.6-17.4c0-5.2-1.4-9.3-4.5-12.3C102.9,226.3,99.6,224.9,94.2,224z
				 M85.1,223.1c-2.3-0.3-4.1-1.1-5.4-2.3c-1.2-1.1-1.7-2.7-1.7-4.2c0-3.6,2.4-6.6,7.1-7.2L85.1,223.1L85.1,223.1z M91.1,248.3
				v-14.1c3,0.4,4.5,0.9,5.8,2.1c1.2,1.1,1.8,2.9,1.8,4.9C98.7,245.3,96,247.7,91.1,248.3z"/>
			<path d="M77.9,216.6c0,1.5,0.5,3,1.7,4.2c1.3,1.2,3.1,2,5.4,2.3v-13.7C80.3,210,77.9,213,77.9,216.6z"/>
			<path d="M88.5,133c-38.1,0-53.1,17.1-53.1,17.1v119.2c0,0,14.2,23.4,53.1,23.4c37,0,50.9-22.3,50.9-22.3V148.5
				C139.4,148.5,126.6,133,88.5,133z M92.3,258.3v9.2H84v-8.9c-7.9-0.2-14-2.3-19.3-7.7l7.4-7.4c3.4,3.4,8.1,4.8,13,4.9v-14.8
				l-2.6-0.3c-4.9-0.7-8.9-2.5-11.3-4.9c-2.8-2.8-4.2-6.5-4.2-11.4c0-9.4,6.4-16.4,17.1-17.5v-7.4h8.3v7.3
				c6.6,0.4,11.7,2.5,16.2,6.7l-7.2,7.1c-2.7-2.6-6.7-3.7-10.1-3.9v14.3l3.1,0.5c5.3,0.8,8.7,2.3,11.1,4.6c3.1,3,4.5,7.1,4.5,12.3
				C109.9,250.9,102.5,257.1,92.3,258.3z M85.1,174.6c-17.4,0-44.6-9.8-41.3-16.3c0,0,28.3,12,42.4,12c23.9,0,42.4-12,42.4-12
				S114.5,174.6,85.1,174.6z"/>
			<path d="M91.1,234.2v14.1c4.9-0.6,7.6-3,7.6-7.1c0-2-0.6-3.8-1.8-4.9C95.6,235.1,94.2,234.6,91.1,234.2z"/>
		</g>
	</g>
</g>
<rect y="-6.3" class="st9" width="313.1" height="320"/>
<path class="st0" d="M149.1,2C68.5,2,3.1,67.4,3.1,148s65.4,146,146,146s146-65.4,146-146C295.1,67.3,229.7,2,149.1,2z M210,168.4
	H88.2c-11.3,0-20.5-9.2-20.5-20.5s9.2-20.5,20.5-20.5H210c11.3,0,20.5,9.2,20.5,20.5C230.5,159.2,221.3,168.4,210,168.4z"/>
<path class="st0" d="M149.5,2C68.7,2,3.1,67.5,3.1,148.4c0,80.8,65.5,146.4,146.4,146.4c80.8,0,146.4-65.5,146.4-146.4
	S230.3,2,149.5,2z M210.6,168.8h-40.5v40.6c0,11.3-9.2,20.5-20.5,20.5s-20.5-9.2-20.5-20.5v-40.6H88.6c-11.3,0-20.5-9.2-20.5-20.5
	s9.2-20.5,20.5-20.5h40.5V87.3c0-11.3,9.2-20.5,20.5-20.5s20.5,9.2,20.5,20.5v40.5h40.5c11.3,0,20.5,9.2,20.5,20.5
	S221.9,168.8,210.6,168.8z"/>
<polygon class="st0" points="295.1,283.4 292.1,247.4 292.1,246.2 291.8,244 288.4,202.9 271.8,214.4 198.4,105.9 146,142.7 
	33.9,10.6 6.3,34 139.7,191.2 189.1,156.6 242.1,235 222.1,248.9 "/>
<polygon class="st0" points="271.2,154.2 294.1,138.6 237.3,111.1 238.7,131.2 169.6,139.5 100.6,116.7 4.1,143.9 11.8,171.1 
	99.9,146.2 166.7,168.3 240.8,159.4 241.9,174.1 268.4,156.1 270,155.1 "/>
<polygon class="st10" points="287.9,50.1 294.1,15 219.1,42.3 237.6,57.8 157,156.4 101.1,134.4 3.6,258.1 31.6,280.2 112.7,177.4 
	168.2,199.2 265,80.8 280.2,93.6 287.3,53.5 287.7,51.6 "/>
</svg>
